M48
;DRILL file {KiCad no-vcs-found-product} date Wed 23 Mar 2016 01:41:42 PM EET
;FORMAT={-:-/ absolute / metric / decimal}
FMAT,2
METRIC,TZ
T1C0.400
T2C0.600
T3C0.800
T4C2.500
%
G90
G05
M71
T1
X146.Y-95.25
X146.Y-109.5
X162.75Y-103.5
X162.75Y-109.5
X166.058Y-101.75
X166.75Y-103.
X168.867Y-103.006
X170.75Y-104.25
X170.75Y-109.5
X171.825Y-101.951
X173.244Y-102.894
X178.257Y-102.894
X179.25Y-105.5
X179.25Y-109.5
X187.75Y-102.5
X193.Y-109.5
X194.421Y-104.1
X197.Y-94.75
T2
X163.134Y-97.984
X164.084Y-96.074
X164.094Y-99.894
X165.044Y-97.984
X165.994Y-96.074
X166.004Y-99.894
X166.954Y-97.984
X167.904Y-96.074
X167.914Y-99.894
X168.864Y-97.984
X169.814Y-96.074
X169.824Y-99.894
X170.774Y-97.984
X171.724Y-96.074
X171.734Y-99.894
X172.684Y-97.984
X173.634Y-96.074
X173.644Y-99.894
X174.594Y-97.984
X175.544Y-96.074
X175.554Y-99.894
X176.504Y-97.984
X177.454Y-96.074
X177.464Y-99.894
X178.414Y-97.984
T3
X151.Y-96.
X151.Y-98.
X151.Y-100.
X151.Y-105.5
X151.Y-107.5
X153.Y-96.
X153.Y-98.
X153.Y-100.
X153.Y-105.5
X153.Y-107.5
X157.5Y-104.25
X157.5Y-106.25
X159.5Y-104.25
X159.5Y-106.25
X165.75Y-104.25
X165.75Y-106.25
X167.75Y-104.25
X167.75Y-106.25
X174.Y-104.25
X174.Y-106.25
X176.Y-104.25
X176.Y-106.25
X182.25Y-104.25
X182.25Y-106.25
X184.25Y-104.25
X184.25Y-106.25
X188.5Y-95.75
X188.5Y-97.75
X188.5Y-99.75
X188.5Y-105.25
X188.5Y-107.25
X190.5Y-95.75
X190.5Y-97.75
X190.5Y-99.75
X190.5Y-105.25
X190.5Y-107.25
T4
X158.519Y-97.984
X183.029Y-97.984
T0
M30
