G04 #@! TF.FileFunction,Legend,Bot*
%FSLAX46Y46*%
G04 Gerber Fmt 4.6, Leading zero omitted, Abs format (unit mm)*
G04 Created by KiCad (PCBNEW no-vcs-found-product) date Wed 23 Mar 2016 01:41:40 PM EET*
%MOMM*%
G01*
G04 APERTURE LIST*
%ADD10C,0.100000*%
%ADD11C,0.150000*%
G04 APERTURE END LIST*
D10*
D11*
X142750000Y-93250000D02*
X198750000Y-93250000D01*
X142750000Y-114250000D02*
X142750000Y-93250000D01*
X198750000Y-114250000D02*
X142750000Y-114250000D01*
X198750000Y-93250000D02*
X198750000Y-114250000D01*
X184773873Y-93984042D02*
G75*
G02X186273873Y-95484042I0J-1500000D01*
G01*
X186273873Y-100484042D02*
G75*
G02X184773873Y-101984042I-1500000J0D01*
G01*
X156773873Y-101984042D02*
G75*
G02X155273873Y-100484042I0J1500000D01*
G01*
X155273873Y-95484042D02*
G75*
G02X156773873Y-93984042I1500000J0D01*
G01*
X184773873Y-93984042D02*
X156773873Y-93984042D01*
X186273873Y-100484042D02*
X186273873Y-95484042D01*
X156773873Y-101984042D02*
X184773873Y-101984042D01*
X155273873Y-95484042D02*
X155273873Y-100484042D01*
X189500000Y-100850000D02*
X189500000Y-94650000D01*
X198200000Y-94950000D02*
X198200000Y-93750000D01*
X196300000Y-94950000D02*
X198200000Y-94950000D01*
X196300000Y-100550000D02*
X196300000Y-94950000D01*
X198200000Y-100550000D02*
X196300000Y-100550000D01*
X198200000Y-101750000D02*
X198200000Y-100550000D01*
X187800000Y-94650000D02*
X189500000Y-94650000D01*
X187800000Y-93750000D02*
X187800000Y-94650000D01*
X187800000Y-100850000D02*
X189500000Y-100850000D01*
X187800000Y-101750000D02*
X187800000Y-100850000D01*
X198200000Y-93750000D02*
X187800000Y-93750000D01*
X187800000Y-101750000D02*
X198200000Y-101750000D01*
X152000000Y-94900000D02*
X152000000Y-101100000D01*
X143300000Y-100800000D02*
X143300000Y-102000000D01*
X145200000Y-100800000D02*
X143300000Y-100800000D01*
X145200000Y-95200000D02*
X145200000Y-100800000D01*
X143300000Y-95200000D02*
X145200000Y-95200000D01*
X143300000Y-94000000D02*
X143300000Y-95200000D01*
X153700000Y-101100000D02*
X152000000Y-101100000D01*
X153700000Y-102000000D02*
X153700000Y-101100000D01*
X153700000Y-94900000D02*
X152000000Y-94900000D01*
X153700000Y-94000000D02*
X153700000Y-94900000D01*
X143300000Y-102000000D02*
X153700000Y-102000000D01*
X153700000Y-94000000D02*
X143300000Y-94000000D01*
X152000000Y-104400000D02*
X152000000Y-108600000D01*
X143300000Y-108300000D02*
X143300000Y-109500000D01*
X145200000Y-108300000D02*
X143300000Y-108300000D01*
X145200000Y-104700000D02*
X145200000Y-108300000D01*
X143300000Y-104700000D02*
X145200000Y-104700000D01*
X143300000Y-103500000D02*
X143300000Y-104700000D01*
X153700000Y-108600000D02*
X152000000Y-108600000D01*
X153700000Y-109500000D02*
X153700000Y-108600000D01*
X153700000Y-104400000D02*
X152000000Y-104400000D01*
X153700000Y-103500000D02*
X153700000Y-104400000D01*
X143300000Y-109500000D02*
X153700000Y-109500000D01*
X153700000Y-103500000D02*
X143300000Y-103500000D01*
X156400000Y-105250000D02*
X160600000Y-105250000D01*
X160300000Y-113950000D02*
X161500000Y-113950000D01*
X160300000Y-112050000D02*
X160300000Y-113950000D01*
X156700000Y-112050000D02*
X160300000Y-112050000D01*
X156700000Y-113950000D02*
X156700000Y-112050000D01*
X155500000Y-113950000D02*
X156700000Y-113950000D01*
X160600000Y-103550000D02*
X160600000Y-105250000D01*
X161500000Y-103550000D02*
X160600000Y-103550000D01*
X156400000Y-103550000D02*
X156400000Y-105250000D01*
X155500000Y-103550000D02*
X156400000Y-103550000D01*
X161500000Y-113950000D02*
X161500000Y-103550000D01*
X155500000Y-103550000D02*
X155500000Y-113950000D01*
X172900000Y-105250000D02*
X177100000Y-105250000D01*
X176800000Y-113950000D02*
X178000000Y-113950000D01*
X176800000Y-112050000D02*
X176800000Y-113950000D01*
X173200000Y-112050000D02*
X176800000Y-112050000D01*
X173200000Y-113950000D02*
X173200000Y-112050000D01*
X172000000Y-113950000D02*
X173200000Y-113950000D01*
X177100000Y-103550000D02*
X177100000Y-105250000D01*
X178000000Y-103550000D02*
X177100000Y-103550000D01*
X172900000Y-103550000D02*
X172900000Y-105250000D01*
X172000000Y-103550000D02*
X172900000Y-103550000D01*
X178000000Y-113950000D02*
X178000000Y-103550000D01*
X172000000Y-103550000D02*
X172000000Y-113950000D01*
X164650000Y-105250000D02*
X168850000Y-105250000D01*
X168550000Y-113950000D02*
X169750000Y-113950000D01*
X168550000Y-112050000D02*
X168550000Y-113950000D01*
X164950000Y-112050000D02*
X168550000Y-112050000D01*
X164950000Y-113950000D02*
X164950000Y-112050000D01*
X163750000Y-113950000D02*
X164950000Y-113950000D01*
X168850000Y-103550000D02*
X168850000Y-105250000D01*
X169750000Y-103550000D02*
X168850000Y-103550000D01*
X164650000Y-103550000D02*
X164650000Y-105250000D01*
X163750000Y-103550000D02*
X164650000Y-103550000D01*
X169750000Y-113950000D02*
X169750000Y-103550000D01*
X163750000Y-103550000D02*
X163750000Y-113950000D01*
X189500000Y-108350000D02*
X189500000Y-104150000D01*
X198200000Y-104450000D02*
X198200000Y-103250000D01*
X196300000Y-104450000D02*
X198200000Y-104450000D01*
X196300000Y-108050000D02*
X196300000Y-104450000D01*
X198200000Y-108050000D02*
X196300000Y-108050000D01*
X198200000Y-109250000D02*
X198200000Y-108050000D01*
X187800000Y-104150000D02*
X189500000Y-104150000D01*
X187800000Y-103250000D02*
X187800000Y-104150000D01*
X187800000Y-108350000D02*
X189500000Y-108350000D01*
X187800000Y-109250000D02*
X187800000Y-108350000D01*
X198200000Y-103250000D02*
X187800000Y-103250000D01*
X187800000Y-109250000D02*
X198200000Y-109250000D01*
X181150000Y-105250000D02*
X185350000Y-105250000D01*
X185050000Y-113950000D02*
X186250000Y-113950000D01*
X185050000Y-112050000D02*
X185050000Y-113950000D01*
X181450000Y-112050000D02*
X185050000Y-112050000D01*
X181450000Y-113950000D02*
X181450000Y-112050000D01*
X180250000Y-113950000D02*
X181450000Y-113950000D01*
X185350000Y-103550000D02*
X185350000Y-105250000D01*
X186250000Y-103550000D02*
X185350000Y-103550000D01*
X181150000Y-103550000D02*
X181150000Y-105250000D01*
X180250000Y-103550000D02*
X181150000Y-103550000D01*
X186250000Y-113950000D02*
X186250000Y-103550000D01*
X180250000Y-103550000D02*
X180250000Y-113950000D01*
X183011968Y-95936423D02*
X183011968Y-94936423D01*
X182631015Y-94936423D01*
X182535777Y-94984042D01*
X182488158Y-95031661D01*
X182440539Y-95126899D01*
X182440539Y-95269756D01*
X182488158Y-95364994D01*
X182535777Y-95412613D01*
X182631015Y-95460232D01*
X183011968Y-95460232D01*
X181488158Y-95936423D02*
X182059587Y-95936423D01*
X181773873Y-95936423D02*
X181773873Y-94936423D01*
X181869111Y-95079280D01*
X181964349Y-95174518D01*
X182059587Y-95222137D01*
X178988158Y-95936423D02*
X179559587Y-95936423D01*
X179273873Y-95936423D02*
X179273873Y-94936423D01*
X179369111Y-95079280D01*
X179464349Y-95174518D01*
X179559587Y-95222137D01*
X193452381Y-97011905D02*
X192452381Y-97011905D01*
X192452381Y-97392858D01*
X192500000Y-97488096D01*
X192547619Y-97535715D01*
X192642857Y-97583334D01*
X192785714Y-97583334D01*
X192880952Y-97535715D01*
X192928571Y-97488096D01*
X192976190Y-97392858D01*
X192976190Y-97011905D01*
X192547619Y-97964286D02*
X192500000Y-98011905D01*
X192452381Y-98107143D01*
X192452381Y-98345239D01*
X192500000Y-98440477D01*
X192547619Y-98488096D01*
X192642857Y-98535715D01*
X192738095Y-98535715D01*
X192880952Y-98488096D01*
X193452381Y-97916667D01*
X193452381Y-98535715D01*
X148952381Y-97261905D02*
X147952381Y-97261905D01*
X147952381Y-97642858D01*
X148000000Y-97738096D01*
X148047619Y-97785715D01*
X148142857Y-97833334D01*
X148285714Y-97833334D01*
X148380952Y-97785715D01*
X148428571Y-97738096D01*
X148476190Y-97642858D01*
X148476190Y-97261905D01*
X147952381Y-98166667D02*
X147952381Y-98785715D01*
X148333333Y-98452381D01*
X148333333Y-98595239D01*
X148380952Y-98690477D01*
X148428571Y-98738096D01*
X148523810Y-98785715D01*
X148761905Y-98785715D01*
X148857143Y-98738096D01*
X148904762Y-98690477D01*
X148952381Y-98595239D01*
X148952381Y-98309524D01*
X148904762Y-98214286D01*
X148857143Y-98166667D01*
X148952381Y-105761905D02*
X147952381Y-105761905D01*
X147952381Y-106142858D01*
X148000000Y-106238096D01*
X148047619Y-106285715D01*
X148142857Y-106333334D01*
X148285714Y-106333334D01*
X148380952Y-106285715D01*
X148428571Y-106238096D01*
X148476190Y-106142858D01*
X148476190Y-105761905D01*
X148285714Y-107190477D02*
X148952381Y-107190477D01*
X147904762Y-106952381D02*
X148619048Y-106714286D01*
X148619048Y-107333334D01*
X159238095Y-109202381D02*
X159238095Y-108202381D01*
X158857142Y-108202381D01*
X158761904Y-108250000D01*
X158714285Y-108297619D01*
X158666666Y-108392857D01*
X158666666Y-108535714D01*
X158714285Y-108630952D01*
X158761904Y-108678571D01*
X158857142Y-108726190D01*
X159238095Y-108726190D01*
X157761904Y-108202381D02*
X158238095Y-108202381D01*
X158285714Y-108678571D01*
X158238095Y-108630952D01*
X158142857Y-108583333D01*
X157904761Y-108583333D01*
X157809523Y-108630952D01*
X157761904Y-108678571D01*
X157714285Y-108773810D01*
X157714285Y-109011905D01*
X157761904Y-109107143D01*
X157809523Y-109154762D01*
X157904761Y-109202381D01*
X158142857Y-109202381D01*
X158238095Y-109154762D01*
X158285714Y-109107143D01*
X175738095Y-109202381D02*
X175738095Y-108202381D01*
X175357142Y-108202381D01*
X175261904Y-108250000D01*
X175214285Y-108297619D01*
X175166666Y-108392857D01*
X175166666Y-108535714D01*
X175214285Y-108630952D01*
X175261904Y-108678571D01*
X175357142Y-108726190D01*
X175738095Y-108726190D01*
X174309523Y-108202381D02*
X174500000Y-108202381D01*
X174595238Y-108250000D01*
X174642857Y-108297619D01*
X174738095Y-108440476D01*
X174785714Y-108630952D01*
X174785714Y-109011905D01*
X174738095Y-109107143D01*
X174690476Y-109154762D01*
X174595238Y-109202381D01*
X174404761Y-109202381D01*
X174309523Y-109154762D01*
X174261904Y-109107143D01*
X174214285Y-109011905D01*
X174214285Y-108773810D01*
X174261904Y-108678571D01*
X174309523Y-108630952D01*
X174404761Y-108583333D01*
X174595238Y-108583333D01*
X174690476Y-108630952D01*
X174738095Y-108678571D01*
X174785714Y-108773810D01*
X167488095Y-109202381D02*
X167488095Y-108202381D01*
X167107142Y-108202381D01*
X167011904Y-108250000D01*
X166964285Y-108297619D01*
X166916666Y-108392857D01*
X166916666Y-108535714D01*
X166964285Y-108630952D01*
X167011904Y-108678571D01*
X167107142Y-108726190D01*
X167488095Y-108726190D01*
X166583333Y-108202381D02*
X165916666Y-108202381D01*
X166345238Y-109202381D01*
X193452381Y-105511905D02*
X192452381Y-105511905D01*
X192452381Y-105892858D01*
X192500000Y-105988096D01*
X192547619Y-106035715D01*
X192642857Y-106083334D01*
X192785714Y-106083334D01*
X192880952Y-106035715D01*
X192928571Y-105988096D01*
X192976190Y-105892858D01*
X192976190Y-105511905D01*
X192880952Y-106654762D02*
X192833333Y-106559524D01*
X192785714Y-106511905D01*
X192690476Y-106464286D01*
X192642857Y-106464286D01*
X192547619Y-106511905D01*
X192500000Y-106559524D01*
X192452381Y-106654762D01*
X192452381Y-106845239D01*
X192500000Y-106940477D01*
X192547619Y-106988096D01*
X192642857Y-107035715D01*
X192690476Y-107035715D01*
X192785714Y-106988096D01*
X192833333Y-106940477D01*
X192880952Y-106845239D01*
X192880952Y-106654762D01*
X192928571Y-106559524D01*
X192976190Y-106511905D01*
X193071429Y-106464286D01*
X193261905Y-106464286D01*
X193357143Y-106511905D01*
X193404762Y-106559524D01*
X193452381Y-106654762D01*
X193452381Y-106845239D01*
X193404762Y-106940477D01*
X193357143Y-106988096D01*
X193261905Y-107035715D01*
X193071429Y-107035715D01*
X192976190Y-106988096D01*
X192928571Y-106940477D01*
X192880952Y-106845239D01*
X183988095Y-109202381D02*
X183988095Y-108202381D01*
X183607142Y-108202381D01*
X183511904Y-108250000D01*
X183464285Y-108297619D01*
X183416666Y-108392857D01*
X183416666Y-108535714D01*
X183464285Y-108630952D01*
X183511904Y-108678571D01*
X183607142Y-108726190D01*
X183988095Y-108726190D01*
X182940476Y-109202381D02*
X182750000Y-109202381D01*
X182654761Y-109154762D01*
X182607142Y-109107143D01*
X182511904Y-108964286D01*
X182464285Y-108773810D01*
X182464285Y-108392857D01*
X182511904Y-108297619D01*
X182559523Y-108250000D01*
X182654761Y-108202381D01*
X182845238Y-108202381D01*
X182940476Y-108250000D01*
X182988095Y-108297619D01*
X183035714Y-108392857D01*
X183035714Y-108630952D01*
X182988095Y-108726190D01*
X182940476Y-108773810D01*
X182845238Y-108821429D01*
X182654761Y-108821429D01*
X182559523Y-108773810D01*
X182511904Y-108726190D01*
X182464285Y-108630952D01*
M02*
