G04 #@! TF.FileFunction,Legend,Top*
%FSLAX46Y46*%
G04 Gerber Fmt 4.6, Leading zero omitted, Abs format (unit mm)*
G04 Created by KiCad (PCBNEW no-vcs-found-product) date Wed 23 Mar 2016 01:41:40 PM EET*
%MOMM*%
G01*
G04 APERTURE LIST*
%ADD10C,0.100000*%
%ADD11C,0.150000*%
%ADD12C,0.075000*%
%ADD13C,0.002540*%
G04 APERTURE END LIST*
D10*
D11*
X143702380Y-112202381D02*
X143702380Y-113011905D01*
X143749999Y-113107143D01*
X143797618Y-113154762D01*
X143892856Y-113202381D01*
X144083333Y-113202381D01*
X144178571Y-113154762D01*
X144226190Y-113107143D01*
X144273809Y-113011905D01*
X144273809Y-112202381D01*
X144749999Y-113202381D02*
X144749999Y-112202381D01*
X145130952Y-112202381D01*
X145226190Y-112250000D01*
X145273809Y-112297619D01*
X145321428Y-112392857D01*
X145321428Y-112535714D01*
X145273809Y-112630952D01*
X145226190Y-112678571D01*
X145130952Y-112726190D01*
X144749999Y-112726190D01*
X145702380Y-113154762D02*
X145845237Y-113202381D01*
X146083333Y-113202381D01*
X146178571Y-113154762D01*
X146226190Y-113107143D01*
X146273809Y-113011905D01*
X146273809Y-112916667D01*
X146226190Y-112821429D01*
X146178571Y-112773810D01*
X146083333Y-112726190D01*
X145892856Y-112678571D01*
X145797618Y-112630952D01*
X145749999Y-112583333D01*
X145702380Y-112488095D01*
X145702380Y-112392857D01*
X145749999Y-112297619D01*
X145797618Y-112250000D01*
X145892856Y-112202381D01*
X146130952Y-112202381D01*
X146273809Y-112250000D01*
X147130952Y-113202381D02*
X147130952Y-112678571D01*
X147083333Y-112583333D01*
X146988095Y-112535714D01*
X146797618Y-112535714D01*
X146702380Y-112583333D01*
X147130952Y-113154762D02*
X147035714Y-113202381D01*
X146797618Y-113202381D01*
X146702380Y-113154762D01*
X146654761Y-113059524D01*
X146654761Y-112964286D01*
X146702380Y-112869048D01*
X146797618Y-112821429D01*
X147035714Y-112821429D01*
X147130952Y-112773810D01*
X147464285Y-112535714D02*
X147845237Y-112535714D01*
X147607142Y-112202381D02*
X147607142Y-113059524D01*
X147654761Y-113154762D01*
X147749999Y-113202381D01*
X147845237Y-113202381D01*
X148892857Y-113154762D02*
X149035714Y-113202381D01*
X149273810Y-113202381D01*
X149369048Y-113154762D01*
X149416667Y-113107143D01*
X149464286Y-113011905D01*
X149464286Y-112916667D01*
X149416667Y-112821429D01*
X149369048Y-112773810D01*
X149273810Y-112726190D01*
X149083333Y-112678571D01*
X148988095Y-112630952D01*
X148940476Y-112583333D01*
X148892857Y-112488095D01*
X148892857Y-112392857D01*
X148940476Y-112297619D01*
X148988095Y-112250000D01*
X149083333Y-112202381D01*
X149321429Y-112202381D01*
X149464286Y-112250000D01*
X149892857Y-112202381D02*
X149892857Y-113011905D01*
X149940476Y-113107143D01*
X149988095Y-113154762D01*
X150083333Y-113202381D01*
X150273810Y-113202381D01*
X150369048Y-113154762D01*
X150416667Y-113107143D01*
X150464286Y-113011905D01*
X150464286Y-112202381D01*
X152035715Y-112678571D02*
X152178572Y-112726190D01*
X152226191Y-112773810D01*
X152273810Y-112869048D01*
X152273810Y-113011905D01*
X152226191Y-113107143D01*
X152178572Y-113154762D01*
X152083334Y-113202381D01*
X151702381Y-113202381D01*
X151702381Y-112202381D01*
X152035715Y-112202381D01*
X152130953Y-112250000D01*
X152178572Y-112297619D01*
X152226191Y-112392857D01*
X152226191Y-112488095D01*
X152178572Y-112583333D01*
X152130953Y-112630952D01*
X152035715Y-112678571D01*
X151702381Y-112678571D01*
X152702381Y-113202381D02*
X152702381Y-112535714D01*
X152702381Y-112726190D02*
X152750000Y-112630952D01*
X152797619Y-112583333D01*
X152892857Y-112535714D01*
X152988096Y-112535714D01*
X153702382Y-113154762D02*
X153607144Y-113202381D01*
X153416667Y-113202381D01*
X153321429Y-113154762D01*
X153273810Y-113059524D01*
X153273810Y-112678571D01*
X153321429Y-112583333D01*
X153416667Y-112535714D01*
X153607144Y-112535714D01*
X153702382Y-112583333D01*
X153750001Y-112678571D01*
X153750001Y-112773810D01*
X153273810Y-112869048D01*
X154607144Y-113202381D02*
X154607144Y-112678571D01*
X154559525Y-112583333D01*
X154464287Y-112535714D01*
X154273810Y-112535714D01*
X154178572Y-112583333D01*
X154607144Y-113154762D02*
X154511906Y-113202381D01*
X154273810Y-113202381D01*
X154178572Y-113154762D01*
X154130953Y-113059524D01*
X154130953Y-112964286D01*
X154178572Y-112869048D01*
X154273810Y-112821429D01*
X154511906Y-112821429D01*
X154607144Y-112773810D01*
X155083334Y-113202381D02*
X155083334Y-112202381D01*
X155178572Y-112821429D02*
X155464287Y-113202381D01*
X155464287Y-112535714D02*
X155083334Y-112916667D01*
X156035715Y-113202381D02*
X155940477Y-113154762D01*
X155892858Y-113107143D01*
X155845239Y-113011905D01*
X155845239Y-112726190D01*
X155892858Y-112630952D01*
X155940477Y-112583333D01*
X156035715Y-112535714D01*
X156178573Y-112535714D01*
X156273811Y-112583333D01*
X156321430Y-112630952D01*
X156369049Y-112726190D01*
X156369049Y-113011905D01*
X156321430Y-113107143D01*
X156273811Y-113154762D01*
X156178573Y-113202381D01*
X156035715Y-113202381D01*
X157226192Y-112535714D02*
X157226192Y-113202381D01*
X156797620Y-112535714D02*
X156797620Y-113059524D01*
X156845239Y-113154762D01*
X156940477Y-113202381D01*
X157083335Y-113202381D01*
X157178573Y-113154762D01*
X157226192Y-113107143D01*
X157559525Y-112535714D02*
X157940477Y-112535714D01*
X157702382Y-112202381D02*
X157702382Y-113059524D01*
X157750001Y-113154762D01*
X157845239Y-113202381D01*
X157940477Y-113202381D01*
X142750000Y-93250000D02*
X198750000Y-93250000D01*
X142750000Y-114250000D02*
X142750000Y-93250000D01*
X198750000Y-114250000D02*
X142750000Y-114250000D01*
X198750000Y-93250000D02*
X198750000Y-114250000D01*
X184773873Y-101984742D02*
X156773873Y-101984742D01*
X155273873Y-100484742D02*
G75*
G03X156773873Y-101984742I1500000J0D01*
G01*
X155273873Y-100484742D02*
X155273873Y-95484742D01*
X156773873Y-93984742D02*
G75*
G03X155273873Y-95484742I0J-1500000D01*
G01*
X156773873Y-93984742D02*
X184773873Y-93984742D01*
X186273873Y-95484742D02*
G75*
G03X184773873Y-93984742I-1500000J0D01*
G01*
X186273873Y-95484742D02*
X186273873Y-100484742D01*
X184773873Y-101984742D02*
G75*
G03X186273873Y-100484742I0J1500000D01*
G01*
D12*
X197410000Y-113120000D02*
X197410000Y-113580000D01*
X197500000Y-113120000D02*
X197550000Y-113120000D01*
X197450000Y-113150000D02*
X197500000Y-113120000D01*
X197430000Y-113170000D02*
X197450000Y-113150000D01*
X197410000Y-113240000D02*
X197430000Y-113170000D01*
X197850000Y-113580000D02*
X197900000Y-113550000D01*
X197750000Y-113580000D02*
X197850000Y-113580000D01*
X197710000Y-113550000D02*
X197750000Y-113580000D01*
X197690000Y-113480000D02*
X197710000Y-113550000D01*
X197690000Y-113210000D02*
X197690000Y-113480000D01*
X197720000Y-113150000D02*
X197690000Y-113210000D01*
X197760000Y-113120000D02*
X197720000Y-113150000D01*
X197860000Y-113120000D02*
X197760000Y-113120000D01*
X197900000Y-113160000D02*
X197860000Y-113120000D01*
X197920000Y-113230000D02*
X197900000Y-113160000D01*
X197920000Y-113350000D02*
X197920000Y-113230000D01*
X197920000Y-113350000D02*
X197690000Y-113350000D01*
X197170000Y-113210000D02*
X197170000Y-113580000D01*
X197140000Y-113150000D02*
X197170000Y-113210000D01*
X197100000Y-113120000D02*
X197140000Y-113150000D01*
X197000000Y-113120000D02*
X197100000Y-113120000D01*
X196950000Y-113150000D02*
X197000000Y-113120000D01*
X197010000Y-113310000D02*
X196960000Y-113340000D01*
X197130000Y-113310000D02*
X197010000Y-113310000D01*
X197170000Y-113280000D02*
X197130000Y-113310000D01*
X197120000Y-113580000D02*
X197170000Y-113540000D01*
X197000000Y-113580000D02*
X197120000Y-113580000D01*
X196950000Y-113540000D02*
X197000000Y-113580000D01*
X196930000Y-113480000D02*
X196950000Y-113540000D01*
X196930000Y-113410000D02*
X196930000Y-113480000D01*
X196960000Y-113340000D02*
X196930000Y-113410000D01*
X196380000Y-113120000D02*
X196480000Y-113580000D01*
X196480000Y-113580000D02*
X196570000Y-113240000D01*
X196570000Y-113240000D02*
X196670000Y-113580000D01*
X196670000Y-113580000D02*
X196770000Y-113120000D01*
X196190000Y-113550000D02*
X196150000Y-113580000D01*
X196150000Y-113580000D02*
X196040000Y-113580000D01*
X196040000Y-113580000D02*
X196000000Y-113550000D01*
X196000000Y-113550000D02*
X195980000Y-113520000D01*
X195980000Y-113520000D02*
X195950000Y-113450000D01*
X195950000Y-113450000D02*
X195950000Y-113250000D01*
X195950000Y-113250000D02*
X195980000Y-113180000D01*
X195980000Y-113180000D02*
X196000000Y-113150000D01*
X196000000Y-113150000D02*
X196060000Y-113110000D01*
X196060000Y-113110000D02*
X196130000Y-113110000D01*
X196130000Y-113110000D02*
X196190000Y-113150000D01*
X196190000Y-112880000D02*
X196190000Y-113580000D01*
X195670000Y-113240000D02*
X195690000Y-113170000D01*
X195690000Y-113170000D02*
X195710000Y-113150000D01*
X195710000Y-113150000D02*
X195760000Y-113120000D01*
X195760000Y-113120000D02*
X195810000Y-113120000D01*
X195670000Y-113120000D02*
X195670000Y-113580000D01*
X195220000Y-113340000D02*
X195190000Y-113410000D01*
X195190000Y-113410000D02*
X195190000Y-113480000D01*
X195190000Y-113480000D02*
X195210000Y-113540000D01*
X195210000Y-113540000D02*
X195260000Y-113580000D01*
X195260000Y-113580000D02*
X195380000Y-113580000D01*
X195380000Y-113580000D02*
X195430000Y-113540000D01*
X195430000Y-113280000D02*
X195390000Y-113310000D01*
X195390000Y-113310000D02*
X195270000Y-113310000D01*
X195270000Y-113310000D02*
X195220000Y-113340000D01*
X195210000Y-113150000D02*
X195260000Y-113120000D01*
X195260000Y-113120000D02*
X195360000Y-113120000D01*
X195360000Y-113120000D02*
X195400000Y-113150000D01*
X195400000Y-113150000D02*
X195430000Y-113210000D01*
X195430000Y-113210000D02*
X195430000Y-113580000D01*
X194760000Y-113190000D02*
X194780000Y-113150000D01*
X194780000Y-113150000D02*
X194830000Y-113120000D01*
X194830000Y-113120000D02*
X194910000Y-113120000D01*
X194910000Y-113120000D02*
X194950000Y-113150000D01*
X194950000Y-113150000D02*
X194970000Y-113210000D01*
X194970000Y-113210000D02*
X194970000Y-113580000D01*
X194760000Y-112880000D02*
X194760000Y-113580000D01*
X193710000Y-113350000D02*
X193480000Y-113350000D01*
X193930000Y-113180000D02*
X193950000Y-113150000D01*
X193950000Y-113150000D02*
X193990000Y-113120000D01*
X193990000Y-113120000D02*
X194080000Y-113120000D01*
X194080000Y-113120000D02*
X194120000Y-113150000D01*
X194120000Y-113150000D02*
X194140000Y-113210000D01*
X194140000Y-113210000D02*
X194140000Y-113580000D01*
X193930000Y-113120000D02*
X193930000Y-113580000D01*
X193710000Y-113350000D02*
X193710000Y-113230000D01*
X193710000Y-113230000D02*
X193690000Y-113160000D01*
X193690000Y-113160000D02*
X193650000Y-113120000D01*
X193650000Y-113120000D02*
X193550000Y-113120000D01*
X193550000Y-113120000D02*
X193510000Y-113150000D01*
X193510000Y-113150000D02*
X193480000Y-113210000D01*
X193480000Y-113210000D02*
X193480000Y-113480000D01*
X193480000Y-113480000D02*
X193500000Y-113550000D01*
X193500000Y-113550000D02*
X193540000Y-113580000D01*
X193540000Y-113580000D02*
X193640000Y-113580000D01*
X193640000Y-113580000D02*
X193690000Y-113550000D01*
X193050000Y-113150000D02*
X193090000Y-113120000D01*
X193090000Y-113120000D02*
X193190000Y-113120000D01*
X193190000Y-113120000D02*
X193230000Y-113150000D01*
X193230000Y-113150000D02*
X193260000Y-113180000D01*
X193260000Y-113180000D02*
X193280000Y-113240000D01*
X193280000Y-113240000D02*
X193280000Y-113460000D01*
X193280000Y-113460000D02*
X193260000Y-113520000D01*
X193260000Y-113520000D02*
X193240000Y-113550000D01*
X193240000Y-113550000D02*
X193200000Y-113580000D01*
X193200000Y-113580000D02*
X193100000Y-113580000D01*
X193100000Y-113580000D02*
X193050000Y-113550000D01*
X193050000Y-113820000D02*
X193050000Y-113120000D01*
X192740000Y-113120000D02*
X192660000Y-113120000D01*
X192660000Y-113120000D02*
X192620000Y-113150000D01*
X192620000Y-113150000D02*
X192600000Y-113180000D01*
X192600000Y-113180000D02*
X192570000Y-113250000D01*
X192660000Y-113580000D02*
X192740000Y-113580000D01*
X192740000Y-113580000D02*
X192790000Y-113550000D01*
X192790000Y-113550000D02*
X192810000Y-113520000D01*
X192810000Y-113520000D02*
X192830000Y-113450000D01*
X192830000Y-113450000D02*
X192830000Y-113250000D01*
X192830000Y-113250000D02*
X192810000Y-113190000D01*
X192810000Y-113190000D02*
X192790000Y-113160000D01*
X192790000Y-113160000D02*
X192740000Y-113120000D01*
X192570000Y-113250000D02*
X192570000Y-113450000D01*
X192570000Y-113450000D02*
X192590000Y-113510000D01*
X192590000Y-113510000D02*
X192610000Y-113540000D01*
X192610000Y-113540000D02*
X192660000Y-113580000D01*
D13*
G36*
X193736160Y-112745360D02*
X193761560Y-112730120D01*
X193819980Y-112694560D01*
X193903800Y-112638680D01*
X194002860Y-112572640D01*
X194101920Y-112506600D01*
X194183200Y-112453260D01*
X194239080Y-112415160D01*
X194264480Y-112402460D01*
X194277180Y-112407540D01*
X194322900Y-112430400D01*
X194391480Y-112465960D01*
X194432120Y-112486280D01*
X194493080Y-112511680D01*
X194526100Y-112519300D01*
X194531180Y-112509140D01*
X194554040Y-112460880D01*
X194589600Y-112379600D01*
X194635320Y-112270380D01*
X194691200Y-112143380D01*
X194747080Y-112008760D01*
X194805500Y-111869060D01*
X194861380Y-111734440D01*
X194909640Y-111615060D01*
X194950280Y-111518540D01*
X194975680Y-111449960D01*
X194985840Y-111422020D01*
X194983300Y-111414400D01*
X194950280Y-111383920D01*
X194896940Y-111343280D01*
X194777560Y-111246760D01*
X194660720Y-111101980D01*
X194589600Y-110936880D01*
X194566740Y-110751460D01*
X194587060Y-110581280D01*
X194653100Y-110418720D01*
X194767400Y-110271400D01*
X194907100Y-110162180D01*
X195069660Y-110093600D01*
X195250000Y-110070740D01*
X195422720Y-110091060D01*
X195590360Y-110157100D01*
X195737680Y-110268860D01*
X195801180Y-110339980D01*
X195887540Y-110489840D01*
X195935800Y-110647320D01*
X195940880Y-110687960D01*
X195933260Y-110863220D01*
X195882460Y-111033400D01*
X195788480Y-111183260D01*
X195658940Y-111307720D01*
X195643700Y-111317880D01*
X195585280Y-111363600D01*
X195544640Y-111394080D01*
X195514160Y-111419480D01*
X195737680Y-111957960D01*
X195773240Y-112041780D01*
X195834200Y-112189100D01*
X195887540Y-112316100D01*
X195930720Y-112417700D01*
X195961200Y-112483740D01*
X195973900Y-112511680D01*
X195973900Y-112514220D01*
X195994220Y-112516760D01*
X196034860Y-112501520D01*
X196111060Y-112465960D01*
X196159320Y-112440560D01*
X196217740Y-112412620D01*
X196243140Y-112402460D01*
X196266000Y-112415160D01*
X196319340Y-112450720D01*
X196400620Y-112504060D01*
X196497140Y-112567560D01*
X196588580Y-112631060D01*
X196672400Y-112686940D01*
X196733360Y-112725040D01*
X196763840Y-112742820D01*
X196768920Y-112742820D01*
X196794320Y-112727580D01*
X196842580Y-112686940D01*
X196916240Y-112618360D01*
X197020380Y-112514220D01*
X197035620Y-112498980D01*
X197121980Y-112412620D01*
X197190560Y-112338960D01*
X197236280Y-112288160D01*
X197254060Y-112265300D01*
X197254060Y-112265300D01*
X197238820Y-112234820D01*
X197200720Y-112173860D01*
X197144840Y-112087500D01*
X197076260Y-111988440D01*
X196898460Y-111729360D01*
X196994980Y-111485520D01*
X197025460Y-111409320D01*
X197063560Y-111320420D01*
X197091500Y-111254380D01*
X197106740Y-111226440D01*
X197132140Y-111216280D01*
X197200720Y-111201040D01*
X197297240Y-111180720D01*
X197411540Y-111160400D01*
X197523300Y-111140080D01*
X197622360Y-111119760D01*
X197693480Y-111107060D01*
X197726500Y-111099440D01*
X197734120Y-111094360D01*
X197741740Y-111079120D01*
X197744280Y-111046100D01*
X197746820Y-110985140D01*
X197749360Y-110891160D01*
X197749360Y-110751460D01*
X197749360Y-110736220D01*
X197746820Y-110606680D01*
X197744280Y-110500000D01*
X197741740Y-110433960D01*
X197736660Y-110406020D01*
X197736660Y-110406020D01*
X197706180Y-110398400D01*
X197635060Y-110383160D01*
X197536000Y-110365380D01*
X197416620Y-110342520D01*
X197409000Y-110339980D01*
X197292160Y-110317120D01*
X197193100Y-110296800D01*
X197121980Y-110281560D01*
X197094040Y-110271400D01*
X197086420Y-110263780D01*
X197063560Y-110218060D01*
X197030540Y-110144400D01*
X196989900Y-110055500D01*
X196951800Y-109961520D01*
X196918780Y-109877700D01*
X196895920Y-109816740D01*
X196888300Y-109788800D01*
X196890840Y-109786260D01*
X196908620Y-109758320D01*
X196949260Y-109697360D01*
X197005140Y-109613540D01*
X197073720Y-109511940D01*
X197078800Y-109504320D01*
X197147380Y-109405260D01*
X197203260Y-109318900D01*
X197238820Y-109260480D01*
X197254060Y-109232540D01*
X197254060Y-109230000D01*
X197231200Y-109199520D01*
X197180400Y-109143640D01*
X197106740Y-109067440D01*
X197020380Y-108978540D01*
X196992440Y-108953140D01*
X196893380Y-108856620D01*
X196827340Y-108795660D01*
X196784160Y-108762640D01*
X196763840Y-108755020D01*
X196763840Y-108755020D01*
X196733360Y-108772800D01*
X196669860Y-108813440D01*
X196586040Y-108871860D01*
X196484440Y-108940440D01*
X196476820Y-108945520D01*
X196377760Y-109014100D01*
X196293940Y-109069980D01*
X196235520Y-109110620D01*
X196207580Y-109125860D01*
X196205040Y-109125860D01*
X196164400Y-109113160D01*
X196093280Y-109087760D01*
X196004380Y-109054740D01*
X195912940Y-109016640D01*
X195829120Y-108981080D01*
X195765620Y-108953140D01*
X195735140Y-108935360D01*
X195735140Y-108935360D01*
X195724980Y-108899800D01*
X195707200Y-108823600D01*
X195686880Y-108722000D01*
X195661480Y-108600080D01*
X195658940Y-108579760D01*
X195636080Y-108460380D01*
X195618300Y-108361320D01*
X195603060Y-108292740D01*
X195595440Y-108264800D01*
X195580200Y-108262260D01*
X195521780Y-108257180D01*
X195432880Y-108254640D01*
X195323660Y-108254640D01*
X195211900Y-108254640D01*
X195102680Y-108257180D01*
X195008700Y-108259720D01*
X194940120Y-108264800D01*
X194912180Y-108269880D01*
X194912180Y-108272420D01*
X194902020Y-108310520D01*
X194884240Y-108384180D01*
X194863920Y-108488320D01*
X194841060Y-108610240D01*
X194835980Y-108633100D01*
X194813120Y-108749940D01*
X194792800Y-108849000D01*
X194780100Y-108915040D01*
X194772480Y-108942980D01*
X194759780Y-108948060D01*
X194711520Y-108968380D01*
X194632780Y-109001400D01*
X194533720Y-109042040D01*
X194305120Y-109133480D01*
X194023180Y-108942980D01*
X193997780Y-108925200D01*
X193896180Y-108856620D01*
X193814900Y-108800740D01*
X193756480Y-108762640D01*
X193733620Y-108749940D01*
X193731080Y-108749940D01*
X193703140Y-108775340D01*
X193647260Y-108828680D01*
X193571060Y-108902340D01*
X193482160Y-108988700D01*
X193418660Y-109054740D01*
X193339920Y-109133480D01*
X193291660Y-109186820D01*
X193263720Y-109219840D01*
X193256100Y-109240160D01*
X193258640Y-109255400D01*
X193276420Y-109283340D01*
X193317060Y-109344300D01*
X193375480Y-109430660D01*
X193444060Y-109529720D01*
X193499940Y-109613540D01*
X193560900Y-109707520D01*
X193599000Y-109773560D01*
X193614240Y-109806580D01*
X193609160Y-109819280D01*
X193591380Y-109875160D01*
X193555820Y-109958980D01*
X193515180Y-110058040D01*
X193416120Y-110279020D01*
X193271340Y-110306960D01*
X193182440Y-110324740D01*
X193060520Y-110347600D01*
X192941140Y-110370460D01*
X192758260Y-110406020D01*
X192750640Y-111081660D01*
X192778580Y-111094360D01*
X192806520Y-111101980D01*
X192875100Y-111117220D01*
X192971620Y-111137540D01*
X193088460Y-111157860D01*
X193184980Y-111175640D01*
X193284040Y-111195960D01*
X193355160Y-111208660D01*
X193385640Y-111216280D01*
X193395800Y-111226440D01*
X193418660Y-111274700D01*
X193454220Y-111350900D01*
X193494860Y-111442340D01*
X193532960Y-111536320D01*
X193568520Y-111625220D01*
X193591380Y-111691260D01*
X193601540Y-111724280D01*
X193588840Y-111752220D01*
X193550740Y-111810640D01*
X193497400Y-111891920D01*
X193428820Y-111990980D01*
X193362780Y-112087500D01*
X193304360Y-112171320D01*
X193266260Y-112232280D01*
X193248480Y-112260220D01*
X193258640Y-112278000D01*
X193296740Y-112326260D01*
X193370400Y-112402460D01*
X193482160Y-112511680D01*
X193499940Y-112529460D01*
X193586300Y-112613280D01*
X193659960Y-112681860D01*
X193713300Y-112727580D01*
X193736160Y-112745360D01*
X193736160Y-112745360D01*
G37*
X193736160Y-112745360D02*
X193761560Y-112730120D01*
X193819980Y-112694560D01*
X193903800Y-112638680D01*
X194002860Y-112572640D01*
X194101920Y-112506600D01*
X194183200Y-112453260D01*
X194239080Y-112415160D01*
X194264480Y-112402460D01*
X194277180Y-112407540D01*
X194322900Y-112430400D01*
X194391480Y-112465960D01*
X194432120Y-112486280D01*
X194493080Y-112511680D01*
X194526100Y-112519300D01*
X194531180Y-112509140D01*
X194554040Y-112460880D01*
X194589600Y-112379600D01*
X194635320Y-112270380D01*
X194691200Y-112143380D01*
X194747080Y-112008760D01*
X194805500Y-111869060D01*
X194861380Y-111734440D01*
X194909640Y-111615060D01*
X194950280Y-111518540D01*
X194975680Y-111449960D01*
X194985840Y-111422020D01*
X194983300Y-111414400D01*
X194950280Y-111383920D01*
X194896940Y-111343280D01*
X194777560Y-111246760D01*
X194660720Y-111101980D01*
X194589600Y-110936880D01*
X194566740Y-110751460D01*
X194587060Y-110581280D01*
X194653100Y-110418720D01*
X194767400Y-110271400D01*
X194907100Y-110162180D01*
X195069660Y-110093600D01*
X195250000Y-110070740D01*
X195422720Y-110091060D01*
X195590360Y-110157100D01*
X195737680Y-110268860D01*
X195801180Y-110339980D01*
X195887540Y-110489840D01*
X195935800Y-110647320D01*
X195940880Y-110687960D01*
X195933260Y-110863220D01*
X195882460Y-111033400D01*
X195788480Y-111183260D01*
X195658940Y-111307720D01*
X195643700Y-111317880D01*
X195585280Y-111363600D01*
X195544640Y-111394080D01*
X195514160Y-111419480D01*
X195737680Y-111957960D01*
X195773240Y-112041780D01*
X195834200Y-112189100D01*
X195887540Y-112316100D01*
X195930720Y-112417700D01*
X195961200Y-112483740D01*
X195973900Y-112511680D01*
X195973900Y-112514220D01*
X195994220Y-112516760D01*
X196034860Y-112501520D01*
X196111060Y-112465960D01*
X196159320Y-112440560D01*
X196217740Y-112412620D01*
X196243140Y-112402460D01*
X196266000Y-112415160D01*
X196319340Y-112450720D01*
X196400620Y-112504060D01*
X196497140Y-112567560D01*
X196588580Y-112631060D01*
X196672400Y-112686940D01*
X196733360Y-112725040D01*
X196763840Y-112742820D01*
X196768920Y-112742820D01*
X196794320Y-112727580D01*
X196842580Y-112686940D01*
X196916240Y-112618360D01*
X197020380Y-112514220D01*
X197035620Y-112498980D01*
X197121980Y-112412620D01*
X197190560Y-112338960D01*
X197236280Y-112288160D01*
X197254060Y-112265300D01*
X197254060Y-112265300D01*
X197238820Y-112234820D01*
X197200720Y-112173860D01*
X197144840Y-112087500D01*
X197076260Y-111988440D01*
X196898460Y-111729360D01*
X196994980Y-111485520D01*
X197025460Y-111409320D01*
X197063560Y-111320420D01*
X197091500Y-111254380D01*
X197106740Y-111226440D01*
X197132140Y-111216280D01*
X197200720Y-111201040D01*
X197297240Y-111180720D01*
X197411540Y-111160400D01*
X197523300Y-111140080D01*
X197622360Y-111119760D01*
X197693480Y-111107060D01*
X197726500Y-111099440D01*
X197734120Y-111094360D01*
X197741740Y-111079120D01*
X197744280Y-111046100D01*
X197746820Y-110985140D01*
X197749360Y-110891160D01*
X197749360Y-110751460D01*
X197749360Y-110736220D01*
X197746820Y-110606680D01*
X197744280Y-110500000D01*
X197741740Y-110433960D01*
X197736660Y-110406020D01*
X197736660Y-110406020D01*
X197706180Y-110398400D01*
X197635060Y-110383160D01*
X197536000Y-110365380D01*
X197416620Y-110342520D01*
X197409000Y-110339980D01*
X197292160Y-110317120D01*
X197193100Y-110296800D01*
X197121980Y-110281560D01*
X197094040Y-110271400D01*
X197086420Y-110263780D01*
X197063560Y-110218060D01*
X197030540Y-110144400D01*
X196989900Y-110055500D01*
X196951800Y-109961520D01*
X196918780Y-109877700D01*
X196895920Y-109816740D01*
X196888300Y-109788800D01*
X196890840Y-109786260D01*
X196908620Y-109758320D01*
X196949260Y-109697360D01*
X197005140Y-109613540D01*
X197073720Y-109511940D01*
X197078800Y-109504320D01*
X197147380Y-109405260D01*
X197203260Y-109318900D01*
X197238820Y-109260480D01*
X197254060Y-109232540D01*
X197254060Y-109230000D01*
X197231200Y-109199520D01*
X197180400Y-109143640D01*
X197106740Y-109067440D01*
X197020380Y-108978540D01*
X196992440Y-108953140D01*
X196893380Y-108856620D01*
X196827340Y-108795660D01*
X196784160Y-108762640D01*
X196763840Y-108755020D01*
X196763840Y-108755020D01*
X196733360Y-108772800D01*
X196669860Y-108813440D01*
X196586040Y-108871860D01*
X196484440Y-108940440D01*
X196476820Y-108945520D01*
X196377760Y-109014100D01*
X196293940Y-109069980D01*
X196235520Y-109110620D01*
X196207580Y-109125860D01*
X196205040Y-109125860D01*
X196164400Y-109113160D01*
X196093280Y-109087760D01*
X196004380Y-109054740D01*
X195912940Y-109016640D01*
X195829120Y-108981080D01*
X195765620Y-108953140D01*
X195735140Y-108935360D01*
X195735140Y-108935360D01*
X195724980Y-108899800D01*
X195707200Y-108823600D01*
X195686880Y-108722000D01*
X195661480Y-108600080D01*
X195658940Y-108579760D01*
X195636080Y-108460380D01*
X195618300Y-108361320D01*
X195603060Y-108292740D01*
X195595440Y-108264800D01*
X195580200Y-108262260D01*
X195521780Y-108257180D01*
X195432880Y-108254640D01*
X195323660Y-108254640D01*
X195211900Y-108254640D01*
X195102680Y-108257180D01*
X195008700Y-108259720D01*
X194940120Y-108264800D01*
X194912180Y-108269880D01*
X194912180Y-108272420D01*
X194902020Y-108310520D01*
X194884240Y-108384180D01*
X194863920Y-108488320D01*
X194841060Y-108610240D01*
X194835980Y-108633100D01*
X194813120Y-108749940D01*
X194792800Y-108849000D01*
X194780100Y-108915040D01*
X194772480Y-108942980D01*
X194759780Y-108948060D01*
X194711520Y-108968380D01*
X194632780Y-109001400D01*
X194533720Y-109042040D01*
X194305120Y-109133480D01*
X194023180Y-108942980D01*
X193997780Y-108925200D01*
X193896180Y-108856620D01*
X193814900Y-108800740D01*
X193756480Y-108762640D01*
X193733620Y-108749940D01*
X193731080Y-108749940D01*
X193703140Y-108775340D01*
X193647260Y-108828680D01*
X193571060Y-108902340D01*
X193482160Y-108988700D01*
X193418660Y-109054740D01*
X193339920Y-109133480D01*
X193291660Y-109186820D01*
X193263720Y-109219840D01*
X193256100Y-109240160D01*
X193258640Y-109255400D01*
X193276420Y-109283340D01*
X193317060Y-109344300D01*
X193375480Y-109430660D01*
X193444060Y-109529720D01*
X193499940Y-109613540D01*
X193560900Y-109707520D01*
X193599000Y-109773560D01*
X193614240Y-109806580D01*
X193609160Y-109819280D01*
X193591380Y-109875160D01*
X193555820Y-109958980D01*
X193515180Y-110058040D01*
X193416120Y-110279020D01*
X193271340Y-110306960D01*
X193182440Y-110324740D01*
X193060520Y-110347600D01*
X192941140Y-110370460D01*
X192758260Y-110406020D01*
X192750640Y-111081660D01*
X192778580Y-111094360D01*
X192806520Y-111101980D01*
X192875100Y-111117220D01*
X192971620Y-111137540D01*
X193088460Y-111157860D01*
X193184980Y-111175640D01*
X193284040Y-111195960D01*
X193355160Y-111208660D01*
X193385640Y-111216280D01*
X193395800Y-111226440D01*
X193418660Y-111274700D01*
X193454220Y-111350900D01*
X193494860Y-111442340D01*
X193532960Y-111536320D01*
X193568520Y-111625220D01*
X193591380Y-111691260D01*
X193601540Y-111724280D01*
X193588840Y-111752220D01*
X193550740Y-111810640D01*
X193497400Y-111891920D01*
X193428820Y-111990980D01*
X193362780Y-112087500D01*
X193304360Y-112171320D01*
X193266260Y-112232280D01*
X193248480Y-112260220D01*
X193258640Y-112278000D01*
X193296740Y-112326260D01*
X193370400Y-112402460D01*
X193482160Y-112511680D01*
X193499940Y-112529460D01*
X193586300Y-112613280D01*
X193659960Y-112681860D01*
X193713300Y-112727580D01*
X193736160Y-112745360D01*
D11*
X159940476Y-101154762D02*
X160083333Y-101202381D01*
X160321429Y-101202381D01*
X160416667Y-101154762D01*
X160464286Y-101107143D01*
X160511905Y-101011905D01*
X160511905Y-100916667D01*
X160464286Y-100821429D01*
X160416667Y-100773810D01*
X160321429Y-100726190D01*
X160130952Y-100678571D01*
X160035714Y-100630952D01*
X159988095Y-100583333D01*
X159940476Y-100488095D01*
X159940476Y-100392857D01*
X159988095Y-100297619D01*
X160035714Y-100250000D01*
X160130952Y-100202381D01*
X160369048Y-100202381D01*
X160511905Y-100250000D01*
X160940476Y-100202381D02*
X160940476Y-101011905D01*
X160988095Y-101107143D01*
X161035714Y-101154762D01*
X161130952Y-101202381D01*
X161321429Y-101202381D01*
X161416667Y-101154762D01*
X161464286Y-101107143D01*
X161511905Y-101011905D01*
X161511905Y-100202381D01*
X179559588Y-95936423D02*
X178988159Y-95936423D01*
X179273873Y-95936423D02*
X179273873Y-94936423D01*
X179178635Y-95079280D01*
X179083397Y-95174518D01*
X178988159Y-95222137D01*
X192928571Y-98940476D02*
X192928571Y-98607142D01*
X193452381Y-98464285D02*
X193452381Y-98940476D01*
X192452381Y-98940476D01*
X192452381Y-98464285D01*
X193452381Y-98035714D02*
X192452381Y-98035714D01*
X192452381Y-97654761D01*
X192500000Y-97559523D01*
X192547619Y-97511904D01*
X192642857Y-97464285D01*
X192785714Y-97464285D01*
X192880952Y-97511904D01*
X192928571Y-97559523D01*
X192976190Y-97654761D01*
X192976190Y-98035714D01*
X193404762Y-97083333D02*
X193452381Y-96940476D01*
X193452381Y-96702380D01*
X193404762Y-96607142D01*
X193357143Y-96559523D01*
X193261905Y-96511904D01*
X193166667Y-96511904D01*
X193071429Y-96559523D01*
X193023810Y-96607142D01*
X192976190Y-96702380D01*
X192928571Y-96892857D01*
X192880952Y-96988095D01*
X192833333Y-97035714D01*
X192738095Y-97083333D01*
X192642857Y-97083333D01*
X192547619Y-97035714D01*
X192500000Y-96988095D01*
X192452381Y-96892857D01*
X192452381Y-96654761D01*
X192500000Y-96511904D01*
X147952381Y-99095238D02*
X147952381Y-98904761D01*
X148000000Y-98809523D01*
X148095238Y-98714285D01*
X148285714Y-98666666D01*
X148619048Y-98666666D01*
X148809524Y-98714285D01*
X148904762Y-98809523D01*
X148952381Y-98904761D01*
X148952381Y-99095238D01*
X148904762Y-99190476D01*
X148809524Y-99285714D01*
X148619048Y-99333333D01*
X148285714Y-99333333D01*
X148095238Y-99285714D01*
X148000000Y-99190476D01*
X147952381Y-99095238D01*
X148428571Y-97904761D02*
X148476190Y-97761904D01*
X148523810Y-97714285D01*
X148619048Y-97666666D01*
X148761905Y-97666666D01*
X148857143Y-97714285D01*
X148904762Y-97761904D01*
X148952381Y-97857142D01*
X148952381Y-98238095D01*
X147952381Y-98238095D01*
X147952381Y-97904761D01*
X148000000Y-97809523D01*
X148047619Y-97761904D01*
X148142857Y-97714285D01*
X148238095Y-97714285D01*
X148333333Y-97761904D01*
X148380952Y-97809523D01*
X148428571Y-97904761D01*
X148428571Y-98238095D01*
X148857143Y-96666666D02*
X148904762Y-96714285D01*
X148952381Y-96857142D01*
X148952381Y-96952380D01*
X148904762Y-97095238D01*
X148809524Y-97190476D01*
X148714286Y-97238095D01*
X148523810Y-97285714D01*
X148380952Y-97285714D01*
X148190476Y-97238095D01*
X148095238Y-97190476D01*
X148000000Y-97095238D01*
X147952381Y-96952380D01*
X147952381Y-96857142D01*
X148000000Y-96714285D01*
X148047619Y-96666666D01*
X148952381Y-107119047D02*
X148476190Y-107452381D01*
X148952381Y-107690476D02*
X147952381Y-107690476D01*
X147952381Y-107309523D01*
X148000000Y-107214285D01*
X148047619Y-107166666D01*
X148142857Y-107119047D01*
X148285714Y-107119047D01*
X148380952Y-107166666D01*
X148428571Y-107214285D01*
X148476190Y-107309523D01*
X148476190Y-107690476D01*
X148428571Y-106357142D02*
X148476190Y-106214285D01*
X148523810Y-106166666D01*
X148619048Y-106119047D01*
X148761905Y-106119047D01*
X148857143Y-106166666D01*
X148904762Y-106214285D01*
X148952381Y-106309523D01*
X148952381Y-106690476D01*
X147952381Y-106690476D01*
X147952381Y-106357142D01*
X148000000Y-106261904D01*
X148047619Y-106214285D01*
X148142857Y-106166666D01*
X148238095Y-106166666D01*
X148333333Y-106214285D01*
X148380952Y-106261904D01*
X148428571Y-106357142D01*
X148428571Y-106690476D01*
X148428571Y-105357142D02*
X148428571Y-105690476D01*
X148952381Y-105690476D02*
X147952381Y-105690476D01*
X147952381Y-105214285D01*
X156404762Y-109154762D02*
X156547619Y-109202381D01*
X156785715Y-109202381D01*
X156880953Y-109154762D01*
X156928572Y-109107143D01*
X156976191Y-109011905D01*
X156976191Y-108916667D01*
X156928572Y-108821429D01*
X156880953Y-108773810D01*
X156785715Y-108726190D01*
X156595238Y-108678571D01*
X156500000Y-108630952D01*
X156452381Y-108583333D01*
X156404762Y-108488095D01*
X156404762Y-108392857D01*
X156452381Y-108297619D01*
X156500000Y-108250000D01*
X156595238Y-108202381D01*
X156833334Y-108202381D01*
X156976191Y-108250000D01*
X157261905Y-108202381D02*
X157833334Y-108202381D01*
X157547619Y-109202381D02*
X157547619Y-108202381D01*
X158166667Y-109202381D02*
X158166667Y-108202381D01*
X158500001Y-108916667D01*
X158833334Y-108202381D01*
X158833334Y-109202381D01*
X159071429Y-109297619D02*
X159833334Y-109297619D01*
X160261905Y-108202381D02*
X160357144Y-108202381D01*
X160452382Y-108250000D01*
X160500001Y-108297619D01*
X160547620Y-108392857D01*
X160595239Y-108583333D01*
X160595239Y-108821429D01*
X160547620Y-109011905D01*
X160500001Y-109107143D01*
X160452382Y-109154762D01*
X160357144Y-109202381D01*
X160261905Y-109202381D01*
X160166667Y-109154762D01*
X160119048Y-109107143D01*
X160071429Y-109011905D01*
X160023810Y-108821429D01*
X160023810Y-108583333D01*
X160071429Y-108392857D01*
X160119048Y-108297619D01*
X160166667Y-108250000D01*
X160261905Y-108202381D01*
X173154762Y-109154762D02*
X173297619Y-109202381D01*
X173535715Y-109202381D01*
X173630953Y-109154762D01*
X173678572Y-109107143D01*
X173726191Y-109011905D01*
X173726191Y-108916667D01*
X173678572Y-108821429D01*
X173630953Y-108773810D01*
X173535715Y-108726190D01*
X173345238Y-108678571D01*
X173250000Y-108630952D01*
X173202381Y-108583333D01*
X173154762Y-108488095D01*
X173154762Y-108392857D01*
X173202381Y-108297619D01*
X173250000Y-108250000D01*
X173345238Y-108202381D01*
X173583334Y-108202381D01*
X173726191Y-108250000D01*
X174011905Y-108202381D02*
X174583334Y-108202381D01*
X174297619Y-109202381D02*
X174297619Y-108202381D01*
X174916667Y-109202381D02*
X174916667Y-108202381D01*
X175250001Y-108916667D01*
X175583334Y-108202381D01*
X175583334Y-109202381D01*
X175821429Y-109297619D02*
X176583334Y-109297619D01*
X177345239Y-109202381D02*
X176773810Y-109202381D01*
X177059524Y-109202381D02*
X177059524Y-108202381D01*
X176964286Y-108345238D01*
X176869048Y-108440476D01*
X176773810Y-108488095D01*
X164904762Y-109154762D02*
X165047619Y-109202381D01*
X165285715Y-109202381D01*
X165380953Y-109154762D01*
X165428572Y-109107143D01*
X165476191Y-109011905D01*
X165476191Y-108916667D01*
X165428572Y-108821429D01*
X165380953Y-108773810D01*
X165285715Y-108726190D01*
X165095238Y-108678571D01*
X165000000Y-108630952D01*
X164952381Y-108583333D01*
X164904762Y-108488095D01*
X164904762Y-108392857D01*
X164952381Y-108297619D01*
X165000000Y-108250000D01*
X165095238Y-108202381D01*
X165333334Y-108202381D01*
X165476191Y-108250000D01*
X165761905Y-108202381D02*
X166333334Y-108202381D01*
X166047619Y-109202381D02*
X166047619Y-108202381D01*
X166666667Y-109202381D02*
X166666667Y-108202381D01*
X167000001Y-108916667D01*
X167333334Y-108202381D01*
X167333334Y-109202381D01*
X167571429Y-109297619D02*
X168333334Y-109297619D01*
X168523810Y-108297619D02*
X168571429Y-108250000D01*
X168666667Y-108202381D01*
X168904763Y-108202381D01*
X169000001Y-108250000D01*
X169047620Y-108297619D01*
X169095239Y-108392857D01*
X169095239Y-108488095D01*
X169047620Y-108630952D01*
X168476191Y-109202381D01*
X169095239Y-109202381D01*
X193404762Y-108345238D02*
X193452381Y-108202381D01*
X193452381Y-107964285D01*
X193404762Y-107869047D01*
X193357143Y-107821428D01*
X193261905Y-107773809D01*
X193166667Y-107773809D01*
X193071429Y-107821428D01*
X193023810Y-107869047D01*
X192976190Y-107964285D01*
X192928571Y-108154762D01*
X192880952Y-108250000D01*
X192833333Y-108297619D01*
X192738095Y-108345238D01*
X192642857Y-108345238D01*
X192547619Y-108297619D01*
X192500000Y-108250000D01*
X192452381Y-108154762D01*
X192452381Y-107916666D01*
X192500000Y-107773809D01*
X192452381Y-107488095D02*
X192452381Y-106916666D01*
X193452381Y-107202381D02*
X192452381Y-107202381D01*
X193452381Y-106583333D02*
X192452381Y-106583333D01*
X193166667Y-106249999D01*
X192452381Y-105916666D01*
X193452381Y-105916666D01*
X193547619Y-105678571D02*
X193547619Y-104916666D01*
X192452381Y-104773809D02*
X192452381Y-104154761D01*
X192833333Y-104488095D01*
X192833333Y-104345237D01*
X192880952Y-104249999D01*
X192928571Y-104202380D01*
X193023810Y-104154761D01*
X193261905Y-104154761D01*
X193357143Y-104202380D01*
X193404762Y-104249999D01*
X193452381Y-104345237D01*
X193452381Y-104630952D01*
X193404762Y-104726190D01*
X193357143Y-104773809D01*
X181154762Y-109154762D02*
X181297619Y-109202381D01*
X181535715Y-109202381D01*
X181630953Y-109154762D01*
X181678572Y-109107143D01*
X181726191Y-109011905D01*
X181726191Y-108916667D01*
X181678572Y-108821429D01*
X181630953Y-108773810D01*
X181535715Y-108726190D01*
X181345238Y-108678571D01*
X181250000Y-108630952D01*
X181202381Y-108583333D01*
X181154762Y-108488095D01*
X181154762Y-108392857D01*
X181202381Y-108297619D01*
X181250000Y-108250000D01*
X181345238Y-108202381D01*
X181583334Y-108202381D01*
X181726191Y-108250000D01*
X182011905Y-108202381D02*
X182583334Y-108202381D01*
X182297619Y-109202381D02*
X182297619Y-108202381D01*
X182916667Y-109202381D02*
X182916667Y-108202381D01*
X183250001Y-108916667D01*
X183583334Y-108202381D01*
X183583334Y-109202381D01*
X183821429Y-109297619D02*
X184583334Y-109297619D01*
X185250001Y-108535714D02*
X185250001Y-109202381D01*
X185011905Y-108154762D02*
X184773810Y-108869048D01*
X185392858Y-108869048D01*
M02*
