G04 #@! TF.FileFunction,Soldermask,Bot*
%FSLAX46Y46*%
G04 Gerber Fmt 4.6, Leading zero omitted, Abs format (unit mm)*
G04 Created by KiCad (PCBNEW no-vcs-found-product) date Wed 23 Mar 2016 01:41:40 PM EET*
%MOMM*%
G01*
G04 APERTURE LIST*
%ADD10C,0.100000*%
%ADD11C,0.150000*%
%ADD12C,1.600000*%
%ADD13C,3.400000*%
%ADD14R,1.700000X1.700000*%
%ADD15C,1.700000*%
G04 APERTURE END LIST*
D10*
D11*
X142750000Y-93250000D02*
X198750000Y-93250000D01*
X142750000Y-114250000D02*
X142750000Y-93250000D01*
X198750000Y-114250000D02*
X142750000Y-114250000D01*
X198750000Y-93250000D02*
X198750000Y-114250000D01*
D12*
X177453873Y-96074042D03*
X175543873Y-96074042D03*
X173633873Y-96074042D03*
X171723873Y-96074042D03*
X169813873Y-96074042D03*
X167903873Y-96074042D03*
X165993873Y-96074042D03*
X164083873Y-96074042D03*
X178413873Y-97984042D03*
X176503873Y-97984042D03*
X174593873Y-97984042D03*
X172683873Y-97984042D03*
X170773873Y-97984042D03*
X168863873Y-97984042D03*
X166953873Y-97984042D03*
X165043873Y-97984042D03*
X163133873Y-97984042D03*
X177463873Y-99894042D03*
X175553873Y-99894042D03*
X173643873Y-99894042D03*
X171733873Y-99894042D03*
X169823873Y-99894042D03*
X167913873Y-99894042D03*
X166003873Y-99894042D03*
X164093873Y-99894042D03*
D13*
X158518873Y-97984042D03*
X183028873Y-97984042D03*
D14*
X188500000Y-95750000D03*
D15*
X190500000Y-95750000D03*
X188500000Y-97750000D03*
X190500000Y-97750000D03*
X190500000Y-99750000D03*
X188500000Y-99750000D03*
D14*
X153000000Y-100000000D03*
D15*
X151000000Y-100000000D03*
X153000000Y-98000000D03*
X151000000Y-98000000D03*
X151000000Y-96000000D03*
X153000000Y-96000000D03*
D14*
X153000000Y-107500000D03*
D15*
X151000000Y-107500000D03*
X153000000Y-105500000D03*
X151000000Y-105500000D03*
D14*
X159500000Y-104250000D03*
D15*
X159500000Y-106250000D03*
X157500000Y-104250000D03*
X157500000Y-106250000D03*
D14*
X176000000Y-104250000D03*
D15*
X176000000Y-106250000D03*
X174000000Y-104250000D03*
X174000000Y-106250000D03*
D14*
X167750000Y-104250000D03*
D15*
X167750000Y-106250000D03*
X165750000Y-104250000D03*
X165750000Y-106250000D03*
D14*
X188500000Y-105250000D03*
D15*
X190500000Y-105250000D03*
X188500000Y-107250000D03*
X190500000Y-107250000D03*
D14*
X184250000Y-104250000D03*
D15*
X184250000Y-106250000D03*
X182250000Y-104250000D03*
X182250000Y-106250000D03*
M02*
