G04 #@! TF.FileFunction,Copper,L1,Top,Signal*
%FSLAX46Y46*%
G04 Gerber Fmt 4.6, Leading zero omitted, Abs format (unit mm)*
G04 Created by KiCad (PCBNEW no-vcs-found-product) date Wed 23 Mar 2016 01:41:40 PM EET*
%MOMM*%
G01*
G04 APERTURE LIST*
%ADD10C,0.100000*%
%ADD11C,0.150000*%
%ADD12C,1.200000*%
%ADD13C,3.000000*%
%ADD14R,1.300000X1.300000*%
%ADD15C,1.300000*%
%ADD16C,0.700000*%
%ADD17C,0.500000*%
%ADD18C,0.600000*%
%ADD19C,0.250000*%
%ADD20C,0.254000*%
G04 APERTURE END LIST*
D10*
D11*
X142750000Y-93250000D02*
X198750000Y-93250000D01*
X142750000Y-114250000D02*
X142750000Y-93250000D01*
X198750000Y-114250000D02*
X142750000Y-114250000D01*
X198750000Y-93250000D02*
X198750000Y-114250000D01*
D12*
X177453873Y-96074042D03*
X175543873Y-96074042D03*
X173633873Y-96074042D03*
X171723873Y-96074042D03*
X169813873Y-96074042D03*
X167903873Y-96074042D03*
X165993873Y-96074042D03*
X164083873Y-96074042D03*
X178413873Y-97984042D03*
X176503873Y-97984042D03*
X174593873Y-97984042D03*
X172683873Y-97984042D03*
X170773873Y-97984042D03*
X168863873Y-97984042D03*
X166953873Y-97984042D03*
X165043873Y-97984042D03*
X163133873Y-97984042D03*
X177463873Y-99894042D03*
X175553873Y-99894042D03*
X173643873Y-99894042D03*
X171733873Y-99894042D03*
X169823873Y-99894042D03*
X167913873Y-99894042D03*
X166003873Y-99894042D03*
X164093873Y-99894042D03*
D13*
X158518873Y-97984042D03*
X183028873Y-97984042D03*
D14*
X188500000Y-95750000D03*
D15*
X190500000Y-95750000D03*
X188500000Y-97750000D03*
X190500000Y-97750000D03*
X190500000Y-99750000D03*
X188500000Y-99750000D03*
D14*
X153000000Y-100000000D03*
D15*
X151000000Y-100000000D03*
X153000000Y-98000000D03*
X151000000Y-98000000D03*
X151000000Y-96000000D03*
X153000000Y-96000000D03*
D14*
X153000000Y-107500000D03*
D15*
X151000000Y-107500000D03*
X153000000Y-105500000D03*
X151000000Y-105500000D03*
D14*
X159500000Y-104250000D03*
D15*
X159500000Y-106250000D03*
X157500000Y-104250000D03*
X157500000Y-106250000D03*
D14*
X176000000Y-104250000D03*
D15*
X176000000Y-106250000D03*
X174000000Y-104250000D03*
X174000000Y-106250000D03*
D14*
X167750000Y-104250000D03*
D15*
X167750000Y-106250000D03*
X165750000Y-104250000D03*
X165750000Y-106250000D03*
D14*
X188500000Y-105250000D03*
D15*
X190500000Y-105250000D03*
X188500000Y-107250000D03*
X190500000Y-107250000D03*
D14*
X184250000Y-104250000D03*
D15*
X184250000Y-106250000D03*
X182250000Y-104250000D03*
X182250000Y-106250000D03*
D16*
X168867315Y-103005797D03*
X166750000Y-103000000D03*
X171825274Y-101950870D03*
X178257277Y-102894047D03*
X173244087Y-102893748D03*
X197000000Y-94750000D03*
X194420632Y-104100376D03*
X146000000Y-95250000D03*
X146000000Y-109500000D03*
X187750000Y-102500000D03*
X179250000Y-105500000D03*
X170750000Y-104250000D03*
X193000000Y-109500000D03*
X179250000Y-109500000D03*
X170750000Y-109500000D03*
X162750000Y-109500000D03*
X162750000Y-103500000D03*
X166057915Y-101750000D03*
D17*
X177453873Y-96074042D02*
X178793894Y-94734021D01*
X188133574Y-97750000D02*
X188500000Y-97750000D01*
X178793894Y-94734021D02*
X185117595Y-94734021D01*
X185117595Y-94734021D02*
X188133574Y-97750000D01*
X176503873Y-97984042D02*
X176503873Y-97024042D01*
X176503873Y-97024042D02*
X177453873Y-96074042D01*
X190500000Y-97750000D02*
X188500000Y-97750000D01*
D18*
X177453873Y-96074042D02*
X177453873Y-96069006D01*
X177453873Y-96384044D02*
X177453873Y-96074042D01*
D19*
X173633873Y-96074042D02*
X172681742Y-97026173D01*
X172681742Y-97026173D02*
X170362740Y-97026173D01*
X170362740Y-97026173D02*
X169819293Y-97569620D01*
X169819293Y-97569620D02*
X169819293Y-98397624D01*
X169819293Y-98397624D02*
X168867315Y-99349602D01*
X168867315Y-99349602D02*
X168867315Y-102581533D01*
X168867315Y-102581533D02*
X168867315Y-103005797D01*
X166750000Y-105250000D02*
X166750000Y-103000000D01*
X166725001Y-105274999D02*
X166750000Y-105250000D01*
X165750000Y-106250000D02*
X166725001Y-105274999D01*
X190500000Y-107250000D02*
X193203853Y-104546147D01*
X193203853Y-104546147D02*
X193203853Y-95826434D01*
X193203853Y-95826434D02*
X191230824Y-93853405D01*
X191230824Y-93853405D02*
X173944510Y-93853405D01*
X173944510Y-93853405D02*
X172323872Y-95474043D01*
X172323872Y-95474043D02*
X171723873Y-96074042D01*
X167750000Y-104250000D02*
X167750000Y-101099171D01*
X167750000Y-101099171D02*
X166957788Y-100306959D01*
X166957788Y-100306959D02*
X166957788Y-99481125D01*
X166957788Y-99481125D02*
X167903873Y-98535040D01*
X167903873Y-98535040D02*
X167903873Y-96922570D01*
X167903873Y-96922570D02*
X167903873Y-96074042D01*
X176000000Y-106250000D02*
X177250000Y-107500000D01*
X177250000Y-107500000D02*
X183000000Y-107500000D01*
X183000000Y-107500000D02*
X184250000Y-106250000D01*
X167750000Y-106250000D02*
X169000000Y-107500000D01*
X169000000Y-107500000D02*
X174750000Y-107500000D01*
X174750000Y-107500000D02*
X176000000Y-106250000D01*
X159500000Y-106250000D02*
X160750000Y-107500000D01*
X167100001Y-106899999D02*
X167750000Y-106250000D01*
X160750000Y-107500000D02*
X166500000Y-107500000D01*
X166500000Y-107500000D02*
X167100001Y-106899999D01*
X159500000Y-104250000D02*
X159500000Y-106250000D01*
X167750000Y-104250000D02*
X167750000Y-106250000D01*
X176000000Y-104250000D02*
X176000000Y-106250000D01*
X184250000Y-106250000D02*
X184250000Y-104250000D01*
X186600000Y-106250000D02*
X184250000Y-106250000D01*
X188500000Y-105250000D02*
X187600000Y-105250000D01*
X187600000Y-105250000D02*
X186600000Y-106250000D01*
X190500000Y-105250000D02*
X188500000Y-105250000D01*
X156199101Y-94937309D02*
X164857140Y-94937309D01*
X164857140Y-94937309D02*
X165993873Y-96074042D01*
X153000000Y-98000000D02*
X153000000Y-97750000D01*
X153000000Y-97750000D02*
X153298294Y-97451706D01*
X153298294Y-97451706D02*
X153684705Y-97451705D01*
X153684705Y-97451705D02*
X156199101Y-94937309D01*
X151000000Y-107500000D02*
X152000000Y-106500000D01*
X152000000Y-106500000D02*
X154253351Y-106500000D01*
X154253351Y-106500000D02*
X155250000Y-105503351D01*
X165049271Y-99358442D02*
X164083873Y-98393044D01*
X155250000Y-105503351D02*
X155250000Y-103250000D01*
X155250000Y-103250000D02*
X157250000Y-101250000D01*
X157250000Y-101250000D02*
X164238125Y-101250000D01*
X164238125Y-101250000D02*
X165049271Y-100438854D01*
X164083873Y-98393044D02*
X164083873Y-96922570D01*
X165049271Y-100438854D02*
X165049271Y-99358442D01*
X164083873Y-96922570D02*
X164083873Y-96074042D01*
D17*
X188500000Y-99750000D02*
X190500000Y-99750000D01*
X178413873Y-97984042D02*
X180663874Y-95734041D01*
X180663874Y-95734041D02*
X184484041Y-95734041D01*
X184484041Y-95734041D02*
X187850001Y-99100001D01*
X187850001Y-99100001D02*
X188500000Y-99750000D01*
X177463873Y-99894042D02*
X177463873Y-98934042D01*
X177463873Y-98934042D02*
X178413873Y-97984042D01*
D19*
X174000000Y-106250000D02*
X175000000Y-105250000D01*
X175000000Y-105250000D02*
X175000000Y-103685723D01*
X175000000Y-103685723D02*
X174593873Y-103279596D01*
X174593873Y-103279596D02*
X174593873Y-98832570D01*
X174593873Y-98832570D02*
X174593873Y-97984042D01*
X172125273Y-101650871D02*
X171825274Y-101950870D01*
X172683873Y-101092271D02*
X172125273Y-101650871D01*
X172683873Y-97984042D02*
X172683873Y-101092271D01*
X178752251Y-102894047D02*
X178257277Y-102894047D01*
X178894047Y-102894047D02*
X178752251Y-102894047D01*
X171676082Y-102893748D02*
X172749113Y-102893748D01*
X170773873Y-97984042D02*
X170773873Y-101991539D01*
X172749113Y-102893748D02*
X173244087Y-102893748D01*
X182250000Y-106250000D02*
X178894047Y-102894047D01*
X170773873Y-101991539D02*
X171676082Y-102893748D01*
X151000000Y-96000000D02*
X152973226Y-94026774D01*
X152973226Y-94026774D02*
X167526774Y-94026774D01*
X167526774Y-94026774D02*
X168863873Y-95363873D01*
X168863873Y-95363873D02*
X168863873Y-97984042D01*
X151000000Y-98000000D02*
X151998304Y-97001696D01*
X151998304Y-97001696D02*
X153498304Y-97001696D01*
X153498304Y-97001696D02*
X156012701Y-94487299D01*
X156012701Y-94487299D02*
X165787289Y-94487299D01*
X165787289Y-94487299D02*
X166953873Y-95653883D01*
X166953873Y-95653883D02*
X166953873Y-97984042D01*
X161117915Y-100000000D02*
X163987915Y-100000000D01*
X163987915Y-100000000D02*
X164093873Y-99894042D01*
X153000000Y-100000000D02*
X161117915Y-100000000D01*
X161117915Y-100000000D02*
X163133873Y-97984042D01*
X151000000Y-100000000D02*
X153000000Y-100000000D01*
X174000000Y-104250000D02*
X174000000Y-100250169D01*
X174000000Y-100250169D02*
X173643873Y-99894042D01*
X153000000Y-107500000D02*
X153900000Y-107500000D01*
X153900000Y-107500000D02*
X155700010Y-105699990D01*
X155700010Y-105699990D02*
X155700010Y-103436400D01*
X155700010Y-103436400D02*
X157384622Y-101751788D01*
X157384622Y-101751788D02*
X166056127Y-101751788D01*
X166056127Y-101751788D02*
X166057915Y-101750000D01*
D20*
G36*
X151196676Y-94728522D02*
X151134969Y-94715855D01*
X150882974Y-94714096D01*
X150635436Y-94761317D01*
X150401784Y-94855718D01*
X150190918Y-94993705D01*
X150010870Y-95170021D01*
X149868497Y-95377951D01*
X149769223Y-95609575D01*
X149716829Y-95856069D01*
X149713310Y-96108046D01*
X149758802Y-96355908D01*
X149851570Y-96590213D01*
X149988081Y-96802037D01*
X150163136Y-96983312D01*
X150185593Y-96998920D01*
X150010870Y-97170021D01*
X149868497Y-97377951D01*
X149769223Y-97609575D01*
X149716829Y-97856069D01*
X149713310Y-98108046D01*
X149758802Y-98355908D01*
X149851570Y-98590213D01*
X149988081Y-98802037D01*
X150163136Y-98983312D01*
X150302144Y-99079925D01*
X150294078Y-99114473D01*
X151000000Y-99820395D01*
X151014143Y-99806253D01*
X151193748Y-99985858D01*
X151179605Y-100000000D01*
X151193748Y-100014143D01*
X151014143Y-100193748D01*
X151000000Y-100179605D01*
X150294078Y-100885527D01*
X150347466Y-101114201D01*
X150577374Y-101220095D01*
X150823524Y-101279102D01*
X151076455Y-101288952D01*
X151326449Y-101249270D01*
X151563896Y-101161578D01*
X151652534Y-101114201D01*
X151705921Y-100885529D01*
X151819676Y-100999284D01*
X151856763Y-101054789D01*
X151945211Y-101143237D01*
X152049215Y-101212730D01*
X152164777Y-101260597D01*
X152287458Y-101285000D01*
X152714250Y-101285000D01*
X152873000Y-101126250D01*
X152873000Y-100127000D01*
X153127000Y-100127000D01*
X153127000Y-101126250D01*
X153285750Y-101285000D01*
X153712542Y-101285000D01*
X153835223Y-101260597D01*
X153950785Y-101212730D01*
X154054789Y-101143237D01*
X154143237Y-101054789D01*
X154212730Y-100950785D01*
X154260597Y-100835223D01*
X154285000Y-100712542D01*
X154285000Y-100285750D01*
X154126250Y-100127000D01*
X153127000Y-100127000D01*
X152873000Y-100127000D01*
X152853000Y-100127000D01*
X152853000Y-99873000D01*
X152873000Y-99873000D01*
X152873000Y-99853000D01*
X153127000Y-99853000D01*
X153127000Y-99873000D01*
X154126250Y-99873000D01*
X154285000Y-99714250D01*
X154285000Y-99287458D01*
X154260597Y-99164777D01*
X154212730Y-99049215D01*
X154143237Y-98945211D01*
X154054789Y-98856763D01*
X153995964Y-98817457D01*
X154122708Y-98637787D01*
X154225206Y-98407572D01*
X154280643Y-98163559D01*
X156381067Y-98163559D01*
X156456649Y-98575375D01*
X156610781Y-98964668D01*
X156837592Y-99316609D01*
X157128442Y-99617793D01*
X157472253Y-99856748D01*
X157855930Y-100024372D01*
X158264857Y-100114281D01*
X158683461Y-100123049D01*
X159095795Y-100050344D01*
X159486154Y-99898933D01*
X159839670Y-99674585D01*
X160142877Y-99385845D01*
X160384227Y-99043710D01*
X160554525Y-98661213D01*
X160647286Y-98252923D01*
X160649945Y-98062480D01*
X161895378Y-98062480D01*
X161934478Y-98302591D01*
X162019671Y-98530460D01*
X162060525Y-98606894D01*
X162284109Y-98654201D01*
X162954268Y-97984042D01*
X162284109Y-97313883D01*
X162060525Y-97361190D01*
X161959636Y-97582558D01*
X161903873Y-97819355D01*
X161895378Y-98062480D01*
X160649945Y-98062480D01*
X160653964Y-97774694D01*
X160572639Y-97363973D01*
X160413087Y-96976871D01*
X160181385Y-96628131D01*
X159886358Y-96331037D01*
X159539244Y-96096906D01*
X159153264Y-95934655D01*
X158743121Y-95850464D01*
X158324436Y-95847541D01*
X157913157Y-95925997D01*
X157524950Y-96082843D01*
X157174601Y-96312105D01*
X156875455Y-96605050D01*
X156638906Y-96950521D01*
X156473964Y-97335359D01*
X156386913Y-97744904D01*
X156381067Y-98163559D01*
X154280643Y-98163559D01*
X154281036Y-98161833D01*
X154284317Y-97926895D01*
X156513903Y-95697309D01*
X162901628Y-95697309D01*
X162900986Y-95698808D01*
X162850631Y-95935712D01*
X162847249Y-96177884D01*
X162890970Y-96416101D01*
X162980129Y-96641290D01*
X163048089Y-96746743D01*
X162815324Y-96784647D01*
X162587455Y-96869840D01*
X162511021Y-96910694D01*
X162463714Y-97134278D01*
X163133873Y-97804437D01*
X163148016Y-97790295D01*
X163323873Y-97966152D01*
X163323873Y-97973647D01*
X163313478Y-97984042D01*
X163323873Y-97994437D01*
X163323873Y-98001932D01*
X163148016Y-98177790D01*
X163133873Y-98163647D01*
X162463714Y-98833806D01*
X162511021Y-99057390D01*
X162732389Y-99158279D01*
X162969186Y-99214042D01*
X163212311Y-99222537D01*
X163238496Y-99218273D01*
X163244107Y-99223884D01*
X163020525Y-99271190D01*
X162919636Y-99492558D01*
X162863873Y-99729355D01*
X162855378Y-99972480D01*
X162894478Y-100212591D01*
X162979671Y-100440460D01*
X163006150Y-100490000D01*
X157250000Y-100490000D01*
X157180123Y-100496851D01*
X157110197Y-100502969D01*
X157106359Y-100504084D01*
X157102382Y-100504474D01*
X157035179Y-100524764D01*
X156967760Y-100544351D01*
X156964212Y-100546190D01*
X156960387Y-100547345D01*
X156898390Y-100580309D01*
X156836074Y-100612611D01*
X156832953Y-100615103D01*
X156829422Y-100616980D01*
X156775007Y-100661359D01*
X156720154Y-100705148D01*
X156714594Y-100710631D01*
X156714478Y-100710726D01*
X156714389Y-100710834D01*
X156712599Y-100712599D01*
X154712599Y-102712599D01*
X154668032Y-102766855D01*
X154622914Y-102820625D01*
X154620989Y-102824126D01*
X154618452Y-102827215D01*
X154585287Y-102889067D01*
X154551457Y-102950604D01*
X154550248Y-102954416D01*
X154548361Y-102957935D01*
X154527848Y-103025031D01*
X154506608Y-103091987D01*
X154506162Y-103095959D01*
X154504994Y-103099781D01*
X154497897Y-103169649D01*
X154490074Y-103239389D01*
X154490020Y-103247194D01*
X154490004Y-103247347D01*
X154490018Y-103247490D01*
X154490000Y-103250000D01*
X154490000Y-105188549D01*
X154284780Y-105393769D01*
X154285056Y-105373999D01*
X154236108Y-105126797D01*
X154140078Y-104893810D01*
X154000622Y-104683912D01*
X153823053Y-104505099D01*
X153614135Y-104364182D01*
X153381824Y-104266527D01*
X153134969Y-104215855D01*
X152882974Y-104214096D01*
X152635436Y-104261317D01*
X152401784Y-104355718D01*
X152190918Y-104493705D01*
X152010870Y-104670021D01*
X152000985Y-104684458D01*
X152000622Y-104683912D01*
X151823053Y-104505099D01*
X151614135Y-104364182D01*
X151381824Y-104266527D01*
X151134969Y-104215855D01*
X150882974Y-104214096D01*
X150635436Y-104261317D01*
X150401784Y-104355718D01*
X150190918Y-104493705D01*
X150010870Y-104670021D01*
X149868497Y-104877951D01*
X149769223Y-105109575D01*
X149716829Y-105356069D01*
X149713310Y-105608046D01*
X149758802Y-105855908D01*
X149851570Y-106090213D01*
X149988081Y-106302037D01*
X150163136Y-106483312D01*
X150185593Y-106498920D01*
X150010870Y-106670021D01*
X149868497Y-106877951D01*
X149769223Y-107109575D01*
X149716829Y-107356069D01*
X149713310Y-107608046D01*
X149758802Y-107855908D01*
X149851570Y-108090213D01*
X149988081Y-108302037D01*
X150163136Y-108483312D01*
X150370067Y-108627133D01*
X150600992Y-108728021D01*
X150847115Y-108782135D01*
X151099061Y-108787412D01*
X151347234Y-108743653D01*
X151582181Y-108652523D01*
X151794953Y-108517494D01*
X151815800Y-108497641D01*
X151819463Y-108504494D01*
X151898815Y-108601185D01*
X151995506Y-108680537D01*
X152105820Y-108739502D01*
X152225518Y-108775812D01*
X152350000Y-108788072D01*
X153650000Y-108788072D01*
X153774482Y-108775812D01*
X153894180Y-108739502D01*
X154004494Y-108680537D01*
X154101185Y-108601185D01*
X154180537Y-108504494D01*
X154239502Y-108394180D01*
X154275812Y-108274482D01*
X154287990Y-108150833D01*
X154313925Y-108137390D01*
X154317048Y-108134897D01*
X154320578Y-108133020D01*
X154374987Y-108088645D01*
X154429846Y-108044852D01*
X154435406Y-108039369D01*
X154435522Y-108039274D01*
X154435611Y-108039166D01*
X154437401Y-108037401D01*
X156214678Y-106260124D01*
X156213310Y-106358046D01*
X156258802Y-106605908D01*
X156351570Y-106840213D01*
X156488081Y-107052037D01*
X156663136Y-107233312D01*
X156870067Y-107377133D01*
X157100992Y-107478021D01*
X157347115Y-107532135D01*
X157599061Y-107537412D01*
X157847234Y-107493653D01*
X158082181Y-107402523D01*
X158294953Y-107267494D01*
X158477446Y-107093708D01*
X158498922Y-107063264D01*
X158663136Y-107233312D01*
X158870067Y-107377133D01*
X159100992Y-107478021D01*
X159347115Y-107532135D01*
X159599061Y-107537412D01*
X159695590Y-107520392D01*
X160212599Y-108037401D01*
X160266855Y-108081968D01*
X160320625Y-108127086D01*
X160324126Y-108129011D01*
X160327215Y-108131548D01*
X160389067Y-108164713D01*
X160450604Y-108198543D01*
X160454416Y-108199752D01*
X160457935Y-108201639D01*
X160525031Y-108222152D01*
X160591987Y-108243392D01*
X160595959Y-108243838D01*
X160599781Y-108245006D01*
X160669649Y-108252103D01*
X160739389Y-108259926D01*
X160747194Y-108259980D01*
X160747347Y-108259996D01*
X160747490Y-108259982D01*
X160750000Y-108260000D01*
X166500000Y-108260000D01*
X166569877Y-108253149D01*
X166639803Y-108247031D01*
X166643641Y-108245916D01*
X166647618Y-108245526D01*
X166714821Y-108225236D01*
X166782240Y-108205649D01*
X166785788Y-108203810D01*
X166789613Y-108202655D01*
X166851591Y-108169701D01*
X166913925Y-108137390D01*
X166917048Y-108134897D01*
X166920578Y-108133020D01*
X166974987Y-108088645D01*
X167029846Y-108044852D01*
X167035406Y-108039369D01*
X167035522Y-108039274D01*
X167035611Y-108039166D01*
X167037401Y-108037401D01*
X167552481Y-107522321D01*
X167597115Y-107532135D01*
X167849061Y-107537412D01*
X167945590Y-107520392D01*
X168462599Y-108037401D01*
X168516855Y-108081968D01*
X168570625Y-108127086D01*
X168574126Y-108129011D01*
X168577215Y-108131548D01*
X168639067Y-108164713D01*
X168700604Y-108198543D01*
X168704416Y-108199752D01*
X168707935Y-108201639D01*
X168775031Y-108222152D01*
X168841987Y-108243392D01*
X168845959Y-108243838D01*
X168849781Y-108245006D01*
X168919649Y-108252103D01*
X168989389Y-108259926D01*
X168997194Y-108259980D01*
X168997347Y-108259996D01*
X168997490Y-108259982D01*
X169000000Y-108260000D01*
X174750000Y-108260000D01*
X174819877Y-108253149D01*
X174889803Y-108247031D01*
X174893641Y-108245916D01*
X174897618Y-108245526D01*
X174964821Y-108225236D01*
X175032240Y-108205649D01*
X175035788Y-108203810D01*
X175039613Y-108202655D01*
X175101591Y-108169701D01*
X175163925Y-108137390D01*
X175167048Y-108134897D01*
X175170578Y-108133020D01*
X175224987Y-108088645D01*
X175279846Y-108044852D01*
X175285406Y-108039369D01*
X175285522Y-108039274D01*
X175285611Y-108039166D01*
X175287401Y-108037401D01*
X175802481Y-107522321D01*
X175847115Y-107532135D01*
X176099061Y-107537412D01*
X176195590Y-107520392D01*
X176712599Y-108037401D01*
X176766855Y-108081968D01*
X176820625Y-108127086D01*
X176824126Y-108129011D01*
X176827215Y-108131548D01*
X176889067Y-108164713D01*
X176950604Y-108198543D01*
X176954416Y-108199752D01*
X176957935Y-108201639D01*
X177025031Y-108222152D01*
X177091987Y-108243392D01*
X177095959Y-108243838D01*
X177099781Y-108245006D01*
X177169649Y-108252103D01*
X177239389Y-108259926D01*
X177247194Y-108259980D01*
X177247347Y-108259996D01*
X177247490Y-108259982D01*
X177250000Y-108260000D01*
X183000000Y-108260000D01*
X183069877Y-108253149D01*
X183139803Y-108247031D01*
X183143641Y-108245916D01*
X183147618Y-108245526D01*
X183214821Y-108225236D01*
X183282240Y-108205649D01*
X183285788Y-108203810D01*
X183289613Y-108202655D01*
X183351591Y-108169701D01*
X183413925Y-108137390D01*
X183417048Y-108134897D01*
X183420578Y-108133020D01*
X183474987Y-108088645D01*
X183529846Y-108044852D01*
X183535406Y-108039369D01*
X183535522Y-108039274D01*
X183535611Y-108039166D01*
X183537401Y-108037401D01*
X184052481Y-107522321D01*
X184097115Y-107532135D01*
X184349061Y-107537412D01*
X184597234Y-107493653D01*
X184832181Y-107402523D01*
X185044953Y-107267494D01*
X185227446Y-107093708D01*
X185286496Y-107010000D01*
X186600000Y-107010000D01*
X186669877Y-107003149D01*
X186739803Y-106997031D01*
X186743641Y-106995916D01*
X186747618Y-106995526D01*
X186814821Y-106975236D01*
X186882240Y-106955649D01*
X186885788Y-106953810D01*
X186889613Y-106952655D01*
X186951591Y-106919701D01*
X187013925Y-106887390D01*
X187017048Y-106884897D01*
X187020578Y-106883020D01*
X187074987Y-106838645D01*
X187129846Y-106794852D01*
X187135406Y-106789369D01*
X187135522Y-106789274D01*
X187135611Y-106789166D01*
X187137401Y-106787401D01*
X187494824Y-106429978D01*
X187495506Y-106430537D01*
X187501482Y-106433731D01*
X187368497Y-106627951D01*
X187269223Y-106859575D01*
X187216829Y-107106069D01*
X187213310Y-107358046D01*
X187258802Y-107605908D01*
X187351570Y-107840213D01*
X187488081Y-108052037D01*
X187663136Y-108233312D01*
X187870067Y-108377133D01*
X188100992Y-108478021D01*
X188347115Y-108532135D01*
X188599061Y-108537412D01*
X188847234Y-108493653D01*
X189082181Y-108402523D01*
X189294953Y-108267494D01*
X189477446Y-108093708D01*
X189498922Y-108063264D01*
X189663136Y-108233312D01*
X189870067Y-108377133D01*
X190100992Y-108478021D01*
X190347115Y-108532135D01*
X190599061Y-108537412D01*
X190847234Y-108493653D01*
X191082181Y-108402523D01*
X191294953Y-108267494D01*
X191477446Y-108093708D01*
X191622708Y-107887787D01*
X191725206Y-107657572D01*
X191781036Y-107411833D01*
X191785056Y-107123999D01*
X191771131Y-107053671D01*
X193741254Y-105083548D01*
X193785821Y-105029292D01*
X193830939Y-104975522D01*
X193832864Y-104972021D01*
X193835401Y-104968932D01*
X193868585Y-104907045D01*
X193902396Y-104845543D01*
X193903604Y-104841735D01*
X193905493Y-104838212D01*
X193926033Y-104771029D01*
X193947245Y-104704160D01*
X193947690Y-104700193D01*
X193948860Y-104696366D01*
X193955962Y-104626448D01*
X193963779Y-104556758D01*
X193963833Y-104548953D01*
X193963849Y-104548800D01*
X193963835Y-104548657D01*
X193963853Y-104546147D01*
X193963853Y-95826434D01*
X193956997Y-95756507D01*
X193950883Y-95686631D01*
X193949769Y-95682798D01*
X193949379Y-95678816D01*
X193929077Y-95611572D01*
X193909502Y-95544194D01*
X193907663Y-95540646D01*
X193906508Y-95536821D01*
X193873544Y-95474824D01*
X193841242Y-95412508D01*
X193838750Y-95409387D01*
X193836873Y-95405856D01*
X193792494Y-95351441D01*
X193748705Y-95296588D01*
X193743222Y-95291028D01*
X193743127Y-95290912D01*
X193743019Y-95290823D01*
X193741254Y-95289033D01*
X192412221Y-93960000D01*
X198040000Y-93960000D01*
X198040000Y-113540000D01*
X143460000Y-113540000D01*
X143460000Y-100076455D01*
X149711048Y-100076455D01*
X149750730Y-100326449D01*
X149838422Y-100563896D01*
X149885799Y-100652534D01*
X150114473Y-100705922D01*
X150820395Y-100000000D01*
X150114473Y-99294078D01*
X149885799Y-99347466D01*
X149779905Y-99577374D01*
X149720898Y-99823524D01*
X149711048Y-100076455D01*
X143460000Y-100076455D01*
X143460000Y-93960000D01*
X151965198Y-93960000D01*
X151196676Y-94728522D01*
X151196676Y-94728522D01*
G37*
X151196676Y-94728522D02*
X151134969Y-94715855D01*
X150882974Y-94714096D01*
X150635436Y-94761317D01*
X150401784Y-94855718D01*
X150190918Y-94993705D01*
X150010870Y-95170021D01*
X149868497Y-95377951D01*
X149769223Y-95609575D01*
X149716829Y-95856069D01*
X149713310Y-96108046D01*
X149758802Y-96355908D01*
X149851570Y-96590213D01*
X149988081Y-96802037D01*
X150163136Y-96983312D01*
X150185593Y-96998920D01*
X150010870Y-97170021D01*
X149868497Y-97377951D01*
X149769223Y-97609575D01*
X149716829Y-97856069D01*
X149713310Y-98108046D01*
X149758802Y-98355908D01*
X149851570Y-98590213D01*
X149988081Y-98802037D01*
X150163136Y-98983312D01*
X150302144Y-99079925D01*
X150294078Y-99114473D01*
X151000000Y-99820395D01*
X151014143Y-99806253D01*
X151193748Y-99985858D01*
X151179605Y-100000000D01*
X151193748Y-100014143D01*
X151014143Y-100193748D01*
X151000000Y-100179605D01*
X150294078Y-100885527D01*
X150347466Y-101114201D01*
X150577374Y-101220095D01*
X150823524Y-101279102D01*
X151076455Y-101288952D01*
X151326449Y-101249270D01*
X151563896Y-101161578D01*
X151652534Y-101114201D01*
X151705921Y-100885529D01*
X151819676Y-100999284D01*
X151856763Y-101054789D01*
X151945211Y-101143237D01*
X152049215Y-101212730D01*
X152164777Y-101260597D01*
X152287458Y-101285000D01*
X152714250Y-101285000D01*
X152873000Y-101126250D01*
X152873000Y-100127000D01*
X153127000Y-100127000D01*
X153127000Y-101126250D01*
X153285750Y-101285000D01*
X153712542Y-101285000D01*
X153835223Y-101260597D01*
X153950785Y-101212730D01*
X154054789Y-101143237D01*
X154143237Y-101054789D01*
X154212730Y-100950785D01*
X154260597Y-100835223D01*
X154285000Y-100712542D01*
X154285000Y-100285750D01*
X154126250Y-100127000D01*
X153127000Y-100127000D01*
X152873000Y-100127000D01*
X152853000Y-100127000D01*
X152853000Y-99873000D01*
X152873000Y-99873000D01*
X152873000Y-99853000D01*
X153127000Y-99853000D01*
X153127000Y-99873000D01*
X154126250Y-99873000D01*
X154285000Y-99714250D01*
X154285000Y-99287458D01*
X154260597Y-99164777D01*
X154212730Y-99049215D01*
X154143237Y-98945211D01*
X154054789Y-98856763D01*
X153995964Y-98817457D01*
X154122708Y-98637787D01*
X154225206Y-98407572D01*
X154280643Y-98163559D01*
X156381067Y-98163559D01*
X156456649Y-98575375D01*
X156610781Y-98964668D01*
X156837592Y-99316609D01*
X157128442Y-99617793D01*
X157472253Y-99856748D01*
X157855930Y-100024372D01*
X158264857Y-100114281D01*
X158683461Y-100123049D01*
X159095795Y-100050344D01*
X159486154Y-99898933D01*
X159839670Y-99674585D01*
X160142877Y-99385845D01*
X160384227Y-99043710D01*
X160554525Y-98661213D01*
X160647286Y-98252923D01*
X160649945Y-98062480D01*
X161895378Y-98062480D01*
X161934478Y-98302591D01*
X162019671Y-98530460D01*
X162060525Y-98606894D01*
X162284109Y-98654201D01*
X162954268Y-97984042D01*
X162284109Y-97313883D01*
X162060525Y-97361190D01*
X161959636Y-97582558D01*
X161903873Y-97819355D01*
X161895378Y-98062480D01*
X160649945Y-98062480D01*
X160653964Y-97774694D01*
X160572639Y-97363973D01*
X160413087Y-96976871D01*
X160181385Y-96628131D01*
X159886358Y-96331037D01*
X159539244Y-96096906D01*
X159153264Y-95934655D01*
X158743121Y-95850464D01*
X158324436Y-95847541D01*
X157913157Y-95925997D01*
X157524950Y-96082843D01*
X157174601Y-96312105D01*
X156875455Y-96605050D01*
X156638906Y-96950521D01*
X156473964Y-97335359D01*
X156386913Y-97744904D01*
X156381067Y-98163559D01*
X154280643Y-98163559D01*
X154281036Y-98161833D01*
X154284317Y-97926895D01*
X156513903Y-95697309D01*
X162901628Y-95697309D01*
X162900986Y-95698808D01*
X162850631Y-95935712D01*
X162847249Y-96177884D01*
X162890970Y-96416101D01*
X162980129Y-96641290D01*
X163048089Y-96746743D01*
X162815324Y-96784647D01*
X162587455Y-96869840D01*
X162511021Y-96910694D01*
X162463714Y-97134278D01*
X163133873Y-97804437D01*
X163148016Y-97790295D01*
X163323873Y-97966152D01*
X163323873Y-97973647D01*
X163313478Y-97984042D01*
X163323873Y-97994437D01*
X163323873Y-98001932D01*
X163148016Y-98177790D01*
X163133873Y-98163647D01*
X162463714Y-98833806D01*
X162511021Y-99057390D01*
X162732389Y-99158279D01*
X162969186Y-99214042D01*
X163212311Y-99222537D01*
X163238496Y-99218273D01*
X163244107Y-99223884D01*
X163020525Y-99271190D01*
X162919636Y-99492558D01*
X162863873Y-99729355D01*
X162855378Y-99972480D01*
X162894478Y-100212591D01*
X162979671Y-100440460D01*
X163006150Y-100490000D01*
X157250000Y-100490000D01*
X157180123Y-100496851D01*
X157110197Y-100502969D01*
X157106359Y-100504084D01*
X157102382Y-100504474D01*
X157035179Y-100524764D01*
X156967760Y-100544351D01*
X156964212Y-100546190D01*
X156960387Y-100547345D01*
X156898390Y-100580309D01*
X156836074Y-100612611D01*
X156832953Y-100615103D01*
X156829422Y-100616980D01*
X156775007Y-100661359D01*
X156720154Y-100705148D01*
X156714594Y-100710631D01*
X156714478Y-100710726D01*
X156714389Y-100710834D01*
X156712599Y-100712599D01*
X154712599Y-102712599D01*
X154668032Y-102766855D01*
X154622914Y-102820625D01*
X154620989Y-102824126D01*
X154618452Y-102827215D01*
X154585287Y-102889067D01*
X154551457Y-102950604D01*
X154550248Y-102954416D01*
X154548361Y-102957935D01*
X154527848Y-103025031D01*
X154506608Y-103091987D01*
X154506162Y-103095959D01*
X154504994Y-103099781D01*
X154497897Y-103169649D01*
X154490074Y-103239389D01*
X154490020Y-103247194D01*
X154490004Y-103247347D01*
X154490018Y-103247490D01*
X154490000Y-103250000D01*
X154490000Y-105188549D01*
X154284780Y-105393769D01*
X154285056Y-105373999D01*
X154236108Y-105126797D01*
X154140078Y-104893810D01*
X154000622Y-104683912D01*
X153823053Y-104505099D01*
X153614135Y-104364182D01*
X153381824Y-104266527D01*
X153134969Y-104215855D01*
X152882974Y-104214096D01*
X152635436Y-104261317D01*
X152401784Y-104355718D01*
X152190918Y-104493705D01*
X152010870Y-104670021D01*
X152000985Y-104684458D01*
X152000622Y-104683912D01*
X151823053Y-104505099D01*
X151614135Y-104364182D01*
X151381824Y-104266527D01*
X151134969Y-104215855D01*
X150882974Y-104214096D01*
X150635436Y-104261317D01*
X150401784Y-104355718D01*
X150190918Y-104493705D01*
X150010870Y-104670021D01*
X149868497Y-104877951D01*
X149769223Y-105109575D01*
X149716829Y-105356069D01*
X149713310Y-105608046D01*
X149758802Y-105855908D01*
X149851570Y-106090213D01*
X149988081Y-106302037D01*
X150163136Y-106483312D01*
X150185593Y-106498920D01*
X150010870Y-106670021D01*
X149868497Y-106877951D01*
X149769223Y-107109575D01*
X149716829Y-107356069D01*
X149713310Y-107608046D01*
X149758802Y-107855908D01*
X149851570Y-108090213D01*
X149988081Y-108302037D01*
X150163136Y-108483312D01*
X150370067Y-108627133D01*
X150600992Y-108728021D01*
X150847115Y-108782135D01*
X151099061Y-108787412D01*
X151347234Y-108743653D01*
X151582181Y-108652523D01*
X151794953Y-108517494D01*
X151815800Y-108497641D01*
X151819463Y-108504494D01*
X151898815Y-108601185D01*
X151995506Y-108680537D01*
X152105820Y-108739502D01*
X152225518Y-108775812D01*
X152350000Y-108788072D01*
X153650000Y-108788072D01*
X153774482Y-108775812D01*
X153894180Y-108739502D01*
X154004494Y-108680537D01*
X154101185Y-108601185D01*
X154180537Y-108504494D01*
X154239502Y-108394180D01*
X154275812Y-108274482D01*
X154287990Y-108150833D01*
X154313925Y-108137390D01*
X154317048Y-108134897D01*
X154320578Y-108133020D01*
X154374987Y-108088645D01*
X154429846Y-108044852D01*
X154435406Y-108039369D01*
X154435522Y-108039274D01*
X154435611Y-108039166D01*
X154437401Y-108037401D01*
X156214678Y-106260124D01*
X156213310Y-106358046D01*
X156258802Y-106605908D01*
X156351570Y-106840213D01*
X156488081Y-107052037D01*
X156663136Y-107233312D01*
X156870067Y-107377133D01*
X157100992Y-107478021D01*
X157347115Y-107532135D01*
X157599061Y-107537412D01*
X157847234Y-107493653D01*
X158082181Y-107402523D01*
X158294953Y-107267494D01*
X158477446Y-107093708D01*
X158498922Y-107063264D01*
X158663136Y-107233312D01*
X158870067Y-107377133D01*
X159100992Y-107478021D01*
X159347115Y-107532135D01*
X159599061Y-107537412D01*
X159695590Y-107520392D01*
X160212599Y-108037401D01*
X160266855Y-108081968D01*
X160320625Y-108127086D01*
X160324126Y-108129011D01*
X160327215Y-108131548D01*
X160389067Y-108164713D01*
X160450604Y-108198543D01*
X160454416Y-108199752D01*
X160457935Y-108201639D01*
X160525031Y-108222152D01*
X160591987Y-108243392D01*
X160595959Y-108243838D01*
X160599781Y-108245006D01*
X160669649Y-108252103D01*
X160739389Y-108259926D01*
X160747194Y-108259980D01*
X160747347Y-108259996D01*
X160747490Y-108259982D01*
X160750000Y-108260000D01*
X166500000Y-108260000D01*
X166569877Y-108253149D01*
X166639803Y-108247031D01*
X166643641Y-108245916D01*
X166647618Y-108245526D01*
X166714821Y-108225236D01*
X166782240Y-108205649D01*
X166785788Y-108203810D01*
X166789613Y-108202655D01*
X166851591Y-108169701D01*
X166913925Y-108137390D01*
X166917048Y-108134897D01*
X166920578Y-108133020D01*
X166974987Y-108088645D01*
X167029846Y-108044852D01*
X167035406Y-108039369D01*
X167035522Y-108039274D01*
X167035611Y-108039166D01*
X167037401Y-108037401D01*
X167552481Y-107522321D01*
X167597115Y-107532135D01*
X167849061Y-107537412D01*
X167945590Y-107520392D01*
X168462599Y-108037401D01*
X168516855Y-108081968D01*
X168570625Y-108127086D01*
X168574126Y-108129011D01*
X168577215Y-108131548D01*
X168639067Y-108164713D01*
X168700604Y-108198543D01*
X168704416Y-108199752D01*
X168707935Y-108201639D01*
X168775031Y-108222152D01*
X168841987Y-108243392D01*
X168845959Y-108243838D01*
X168849781Y-108245006D01*
X168919649Y-108252103D01*
X168989389Y-108259926D01*
X168997194Y-108259980D01*
X168997347Y-108259996D01*
X168997490Y-108259982D01*
X169000000Y-108260000D01*
X174750000Y-108260000D01*
X174819877Y-108253149D01*
X174889803Y-108247031D01*
X174893641Y-108245916D01*
X174897618Y-108245526D01*
X174964821Y-108225236D01*
X175032240Y-108205649D01*
X175035788Y-108203810D01*
X175039613Y-108202655D01*
X175101591Y-108169701D01*
X175163925Y-108137390D01*
X175167048Y-108134897D01*
X175170578Y-108133020D01*
X175224987Y-108088645D01*
X175279846Y-108044852D01*
X175285406Y-108039369D01*
X175285522Y-108039274D01*
X175285611Y-108039166D01*
X175287401Y-108037401D01*
X175802481Y-107522321D01*
X175847115Y-107532135D01*
X176099061Y-107537412D01*
X176195590Y-107520392D01*
X176712599Y-108037401D01*
X176766855Y-108081968D01*
X176820625Y-108127086D01*
X176824126Y-108129011D01*
X176827215Y-108131548D01*
X176889067Y-108164713D01*
X176950604Y-108198543D01*
X176954416Y-108199752D01*
X176957935Y-108201639D01*
X177025031Y-108222152D01*
X177091987Y-108243392D01*
X177095959Y-108243838D01*
X177099781Y-108245006D01*
X177169649Y-108252103D01*
X177239389Y-108259926D01*
X177247194Y-108259980D01*
X177247347Y-108259996D01*
X177247490Y-108259982D01*
X177250000Y-108260000D01*
X183000000Y-108260000D01*
X183069877Y-108253149D01*
X183139803Y-108247031D01*
X183143641Y-108245916D01*
X183147618Y-108245526D01*
X183214821Y-108225236D01*
X183282240Y-108205649D01*
X183285788Y-108203810D01*
X183289613Y-108202655D01*
X183351591Y-108169701D01*
X183413925Y-108137390D01*
X183417048Y-108134897D01*
X183420578Y-108133020D01*
X183474987Y-108088645D01*
X183529846Y-108044852D01*
X183535406Y-108039369D01*
X183535522Y-108039274D01*
X183535611Y-108039166D01*
X183537401Y-108037401D01*
X184052481Y-107522321D01*
X184097115Y-107532135D01*
X184349061Y-107537412D01*
X184597234Y-107493653D01*
X184832181Y-107402523D01*
X185044953Y-107267494D01*
X185227446Y-107093708D01*
X185286496Y-107010000D01*
X186600000Y-107010000D01*
X186669877Y-107003149D01*
X186739803Y-106997031D01*
X186743641Y-106995916D01*
X186747618Y-106995526D01*
X186814821Y-106975236D01*
X186882240Y-106955649D01*
X186885788Y-106953810D01*
X186889613Y-106952655D01*
X186951591Y-106919701D01*
X187013925Y-106887390D01*
X187017048Y-106884897D01*
X187020578Y-106883020D01*
X187074987Y-106838645D01*
X187129846Y-106794852D01*
X187135406Y-106789369D01*
X187135522Y-106789274D01*
X187135611Y-106789166D01*
X187137401Y-106787401D01*
X187494824Y-106429978D01*
X187495506Y-106430537D01*
X187501482Y-106433731D01*
X187368497Y-106627951D01*
X187269223Y-106859575D01*
X187216829Y-107106069D01*
X187213310Y-107358046D01*
X187258802Y-107605908D01*
X187351570Y-107840213D01*
X187488081Y-108052037D01*
X187663136Y-108233312D01*
X187870067Y-108377133D01*
X188100992Y-108478021D01*
X188347115Y-108532135D01*
X188599061Y-108537412D01*
X188847234Y-108493653D01*
X189082181Y-108402523D01*
X189294953Y-108267494D01*
X189477446Y-108093708D01*
X189498922Y-108063264D01*
X189663136Y-108233312D01*
X189870067Y-108377133D01*
X190100992Y-108478021D01*
X190347115Y-108532135D01*
X190599061Y-108537412D01*
X190847234Y-108493653D01*
X191082181Y-108402523D01*
X191294953Y-108267494D01*
X191477446Y-108093708D01*
X191622708Y-107887787D01*
X191725206Y-107657572D01*
X191781036Y-107411833D01*
X191785056Y-107123999D01*
X191771131Y-107053671D01*
X193741254Y-105083548D01*
X193785821Y-105029292D01*
X193830939Y-104975522D01*
X193832864Y-104972021D01*
X193835401Y-104968932D01*
X193868585Y-104907045D01*
X193902396Y-104845543D01*
X193903604Y-104841735D01*
X193905493Y-104838212D01*
X193926033Y-104771029D01*
X193947245Y-104704160D01*
X193947690Y-104700193D01*
X193948860Y-104696366D01*
X193955962Y-104626448D01*
X193963779Y-104556758D01*
X193963833Y-104548953D01*
X193963849Y-104548800D01*
X193963835Y-104548657D01*
X193963853Y-104546147D01*
X193963853Y-95826434D01*
X193956997Y-95756507D01*
X193950883Y-95686631D01*
X193949769Y-95682798D01*
X193949379Y-95678816D01*
X193929077Y-95611572D01*
X193909502Y-95544194D01*
X193907663Y-95540646D01*
X193906508Y-95536821D01*
X193873544Y-95474824D01*
X193841242Y-95412508D01*
X193838750Y-95409387D01*
X193836873Y-95405856D01*
X193792494Y-95351441D01*
X193748705Y-95296588D01*
X193743222Y-95291028D01*
X193743127Y-95290912D01*
X193743019Y-95290823D01*
X193741254Y-95289033D01*
X192412221Y-93960000D01*
X198040000Y-93960000D01*
X198040000Y-113540000D01*
X143460000Y-113540000D01*
X143460000Y-100076455D01*
X149711048Y-100076455D01*
X149750730Y-100326449D01*
X149838422Y-100563896D01*
X149885799Y-100652534D01*
X150114473Y-100705922D01*
X150820395Y-100000000D01*
X150114473Y-99294078D01*
X149885799Y-99347466D01*
X149779905Y-99577374D01*
X149720898Y-99823524D01*
X149711048Y-100076455D01*
X143460000Y-100076455D01*
X143460000Y-93960000D01*
X151965198Y-93960000D01*
X151196676Y-94728522D01*
G36*
X165575048Y-102613989D02*
X165752060Y-102691323D01*
X165806040Y-102703191D01*
X165766402Y-102889672D01*
X165765350Y-102965020D01*
X165632974Y-102964096D01*
X165385436Y-103011317D01*
X165151784Y-103105718D01*
X164940918Y-103243705D01*
X164760870Y-103420021D01*
X164618497Y-103627951D01*
X164519223Y-103859575D01*
X164466829Y-104106069D01*
X164463310Y-104358046D01*
X164508802Y-104605908D01*
X164601570Y-104840213D01*
X164738081Y-105052037D01*
X164913136Y-105233312D01*
X164935593Y-105248920D01*
X164760870Y-105420021D01*
X164618497Y-105627951D01*
X164519223Y-105859575D01*
X164466829Y-106106069D01*
X164463310Y-106358046D01*
X164508802Y-106605908D01*
X164561893Y-106740000D01*
X161064802Y-106740000D01*
X160772816Y-106448014D01*
X160781036Y-106411833D01*
X160785056Y-106123999D01*
X160736108Y-105876797D01*
X160640078Y-105643810D01*
X160500622Y-105433912D01*
X160499775Y-105433059D01*
X160504494Y-105430537D01*
X160601185Y-105351185D01*
X160680537Y-105254494D01*
X160739502Y-105144180D01*
X160775812Y-105024482D01*
X160788072Y-104900000D01*
X160788072Y-103600000D01*
X160775812Y-103475518D01*
X160739502Y-103355820D01*
X160680537Y-103245506D01*
X160601185Y-103148815D01*
X160504494Y-103069463D01*
X160394180Y-103010498D01*
X160274482Y-102974188D01*
X160150000Y-102961928D01*
X158850000Y-102961928D01*
X158725518Y-102974188D01*
X158605820Y-103010498D01*
X158495506Y-103069463D01*
X158398815Y-103148815D01*
X158319463Y-103245506D01*
X158316646Y-103250777D01*
X158114135Y-103114182D01*
X157881824Y-103016527D01*
X157634969Y-102965855D01*
X157382974Y-102964096D01*
X157215090Y-102996122D01*
X157699424Y-102511788D01*
X165428000Y-102511788D01*
X165575048Y-102613989D01*
X165575048Y-102613989D01*
G37*
X165575048Y-102613989D02*
X165752060Y-102691323D01*
X165806040Y-102703191D01*
X165766402Y-102889672D01*
X165765350Y-102965020D01*
X165632974Y-102964096D01*
X165385436Y-103011317D01*
X165151784Y-103105718D01*
X164940918Y-103243705D01*
X164760870Y-103420021D01*
X164618497Y-103627951D01*
X164519223Y-103859575D01*
X164466829Y-104106069D01*
X164463310Y-104358046D01*
X164508802Y-104605908D01*
X164601570Y-104840213D01*
X164738081Y-105052037D01*
X164913136Y-105233312D01*
X164935593Y-105248920D01*
X164760870Y-105420021D01*
X164618497Y-105627951D01*
X164519223Y-105859575D01*
X164466829Y-106106069D01*
X164463310Y-106358046D01*
X164508802Y-106605908D01*
X164561893Y-106740000D01*
X161064802Y-106740000D01*
X160772816Y-106448014D01*
X160781036Y-106411833D01*
X160785056Y-106123999D01*
X160736108Y-105876797D01*
X160640078Y-105643810D01*
X160500622Y-105433912D01*
X160499775Y-105433059D01*
X160504494Y-105430537D01*
X160601185Y-105351185D01*
X160680537Y-105254494D01*
X160739502Y-105144180D01*
X160775812Y-105024482D01*
X160788072Y-104900000D01*
X160788072Y-103600000D01*
X160775812Y-103475518D01*
X160739502Y-103355820D01*
X160680537Y-103245506D01*
X160601185Y-103148815D01*
X160504494Y-103069463D01*
X160394180Y-103010498D01*
X160274482Y-102974188D01*
X160150000Y-102961928D01*
X158850000Y-102961928D01*
X158725518Y-102974188D01*
X158605820Y-103010498D01*
X158495506Y-103069463D01*
X158398815Y-103148815D01*
X158319463Y-103245506D01*
X158316646Y-103250777D01*
X158114135Y-103114182D01*
X157881824Y-103016527D01*
X157634969Y-102965855D01*
X157382974Y-102964096D01*
X157215090Y-102996122D01*
X157699424Y-102511788D01*
X165428000Y-102511788D01*
X165575048Y-102613989D01*
G36*
X170013873Y-101991539D02*
X170020724Y-102061416D01*
X170026842Y-102131342D01*
X170027957Y-102135180D01*
X170028347Y-102139157D01*
X170048637Y-102206360D01*
X170068224Y-102273779D01*
X170070063Y-102277327D01*
X170071218Y-102281152D01*
X170104172Y-102343130D01*
X170136483Y-102405464D01*
X170138976Y-102408587D01*
X170140853Y-102412117D01*
X170185228Y-102466526D01*
X170229021Y-102521385D01*
X170234504Y-102526945D01*
X170234599Y-102527061D01*
X170234707Y-102527150D01*
X170236472Y-102528940D01*
X171138681Y-103431149D01*
X171192937Y-103475716D01*
X171246707Y-103520834D01*
X171250208Y-103522759D01*
X171253297Y-103525296D01*
X171315149Y-103558461D01*
X171376686Y-103592291D01*
X171380498Y-103593500D01*
X171384017Y-103595387D01*
X171451113Y-103615900D01*
X171518069Y-103637140D01*
X171522041Y-103637586D01*
X171525863Y-103638754D01*
X171595687Y-103645846D01*
X171665471Y-103653674D01*
X171673286Y-103653729D01*
X171673429Y-103653743D01*
X171673562Y-103653730D01*
X171676082Y-103653748D01*
X172611600Y-103653748D01*
X172761220Y-103757737D01*
X172804725Y-103776744D01*
X172769223Y-103859575D01*
X172716829Y-104106069D01*
X172713310Y-104358046D01*
X172758802Y-104605908D01*
X172851570Y-104840213D01*
X172988081Y-105052037D01*
X173163136Y-105233312D01*
X173185593Y-105248920D01*
X173010870Y-105420021D01*
X172868497Y-105627951D01*
X172769223Y-105859575D01*
X172716829Y-106106069D01*
X172713310Y-106358046D01*
X172758802Y-106605908D01*
X172811893Y-106740000D01*
X169314802Y-106740000D01*
X169022816Y-106448014D01*
X169031036Y-106411833D01*
X169035056Y-106123999D01*
X168986108Y-105876797D01*
X168890078Y-105643810D01*
X168750622Y-105433912D01*
X168749775Y-105433059D01*
X168754494Y-105430537D01*
X168851185Y-105351185D01*
X168930537Y-105254494D01*
X168989502Y-105144180D01*
X169025812Y-105024482D01*
X169038072Y-104900000D01*
X169038072Y-103975926D01*
X169133483Y-103959103D01*
X169313578Y-103889248D01*
X169476676Y-103785743D01*
X169616563Y-103652530D01*
X169727912Y-103494684D01*
X169806480Y-103318216D01*
X169849276Y-103129848D01*
X169852357Y-102909213D01*
X169814837Y-102719723D01*
X169741227Y-102541130D01*
X169634329Y-102380236D01*
X169627315Y-102373173D01*
X169627315Y-101115378D01*
X169676937Y-101126288D01*
X169919079Y-101131361D01*
X170013873Y-101114646D01*
X170013873Y-101991539D01*
X170013873Y-101991539D01*
G37*
X170013873Y-101991539D02*
X170020724Y-102061416D01*
X170026842Y-102131342D01*
X170027957Y-102135180D01*
X170028347Y-102139157D01*
X170048637Y-102206360D01*
X170068224Y-102273779D01*
X170070063Y-102277327D01*
X170071218Y-102281152D01*
X170104172Y-102343130D01*
X170136483Y-102405464D01*
X170138976Y-102408587D01*
X170140853Y-102412117D01*
X170185228Y-102466526D01*
X170229021Y-102521385D01*
X170234504Y-102526945D01*
X170234599Y-102527061D01*
X170234707Y-102527150D01*
X170236472Y-102528940D01*
X171138681Y-103431149D01*
X171192937Y-103475716D01*
X171246707Y-103520834D01*
X171250208Y-103522759D01*
X171253297Y-103525296D01*
X171315149Y-103558461D01*
X171376686Y-103592291D01*
X171380498Y-103593500D01*
X171384017Y-103595387D01*
X171451113Y-103615900D01*
X171518069Y-103637140D01*
X171522041Y-103637586D01*
X171525863Y-103638754D01*
X171595687Y-103645846D01*
X171665471Y-103653674D01*
X171673286Y-103653729D01*
X171673429Y-103653743D01*
X171673562Y-103653730D01*
X171676082Y-103653748D01*
X172611600Y-103653748D01*
X172761220Y-103757737D01*
X172804725Y-103776744D01*
X172769223Y-103859575D01*
X172716829Y-104106069D01*
X172713310Y-104358046D01*
X172758802Y-104605908D01*
X172851570Y-104840213D01*
X172988081Y-105052037D01*
X173163136Y-105233312D01*
X173185593Y-105248920D01*
X173010870Y-105420021D01*
X172868497Y-105627951D01*
X172769223Y-105859575D01*
X172716829Y-106106069D01*
X172713310Y-106358046D01*
X172758802Y-106605908D01*
X172811893Y-106740000D01*
X169314802Y-106740000D01*
X169022816Y-106448014D01*
X169031036Y-106411833D01*
X169035056Y-106123999D01*
X168986108Y-105876797D01*
X168890078Y-105643810D01*
X168750622Y-105433912D01*
X168749775Y-105433059D01*
X168754494Y-105430537D01*
X168851185Y-105351185D01*
X168930537Y-105254494D01*
X168989502Y-105144180D01*
X169025812Y-105024482D01*
X169038072Y-104900000D01*
X169038072Y-103975926D01*
X169133483Y-103959103D01*
X169313578Y-103889248D01*
X169476676Y-103785743D01*
X169616563Y-103652530D01*
X169727912Y-103494684D01*
X169806480Y-103318216D01*
X169849276Y-103129848D01*
X169852357Y-102909213D01*
X169814837Y-102719723D01*
X169741227Y-102541130D01*
X169634329Y-102380236D01*
X169627315Y-102373173D01*
X169627315Y-101115378D01*
X169676937Y-101126288D01*
X169919079Y-101131361D01*
X170013873Y-101114646D01*
X170013873Y-101991539D01*
G36*
X192443853Y-96141236D02*
X192443853Y-104231345D01*
X191746404Y-104928794D01*
X191736108Y-104876797D01*
X191640078Y-104643810D01*
X191500622Y-104433912D01*
X191323053Y-104255099D01*
X191114135Y-104114182D01*
X190881824Y-104016527D01*
X190634969Y-103965855D01*
X190382974Y-103964096D01*
X190135436Y-104011317D01*
X189901784Y-104105718D01*
X189690918Y-104243705D01*
X189683472Y-104250997D01*
X189680537Y-104245506D01*
X189601185Y-104148815D01*
X189504494Y-104069463D01*
X189394180Y-104010498D01*
X189274482Y-103974188D01*
X189150000Y-103961928D01*
X187850000Y-103961928D01*
X187725518Y-103974188D01*
X187605820Y-104010498D01*
X187495506Y-104069463D01*
X187398815Y-104148815D01*
X187319463Y-104245506D01*
X187260498Y-104355820D01*
X187224188Y-104475518D01*
X187212010Y-104599166D01*
X187186075Y-104612610D01*
X187182952Y-104615103D01*
X187179422Y-104616980D01*
X187124989Y-104661375D01*
X187070155Y-104705148D01*
X187064596Y-104710630D01*
X187064478Y-104710726D01*
X187064388Y-104710835D01*
X187062599Y-104712599D01*
X186285198Y-105490000D01*
X185287887Y-105490000D01*
X185250622Y-105433912D01*
X185249775Y-105433059D01*
X185254494Y-105430537D01*
X185351185Y-105351185D01*
X185430537Y-105254494D01*
X185489502Y-105144180D01*
X185525812Y-105024482D01*
X185538072Y-104900000D01*
X185538072Y-103600000D01*
X185525812Y-103475518D01*
X185489502Y-103355820D01*
X185430537Y-103245506D01*
X185351185Y-103148815D01*
X185254494Y-103069463D01*
X185144180Y-103010498D01*
X185024482Y-102974188D01*
X184900000Y-102961928D01*
X183600000Y-102961928D01*
X183475518Y-102974188D01*
X183355820Y-103010498D01*
X183245506Y-103069463D01*
X183148815Y-103148815D01*
X183069463Y-103245506D01*
X183066646Y-103250777D01*
X182864135Y-103114182D01*
X182631824Y-103016527D01*
X182384969Y-102965855D01*
X182132974Y-102964096D01*
X181885436Y-103011317D01*
X181651784Y-103105718D01*
X181440918Y-103243705D01*
X181260870Y-103420021D01*
X181118497Y-103627951D01*
X181019223Y-103859575D01*
X181004350Y-103929548D01*
X179431448Y-102356646D01*
X179377192Y-102312079D01*
X179323422Y-102266961D01*
X179319921Y-102265036D01*
X179316832Y-102262499D01*
X179254980Y-102229334D01*
X179193443Y-102195504D01*
X179189631Y-102194295D01*
X179186112Y-102192408D01*
X179119016Y-102171895D01*
X179052060Y-102150655D01*
X179048088Y-102150209D01*
X179044266Y-102149041D01*
X178974398Y-102141944D01*
X178904658Y-102134121D01*
X178896853Y-102134067D01*
X178896700Y-102134051D01*
X178896557Y-102134065D01*
X178894047Y-102134047D01*
X178890788Y-102134047D01*
X178888178Y-102131419D01*
X178728034Y-102023401D01*
X178549959Y-101948545D01*
X178360736Y-101909703D01*
X178167572Y-101908354D01*
X177977825Y-101944551D01*
X177798722Y-102016913D01*
X177637086Y-102122685D01*
X177499072Y-102257838D01*
X177389938Y-102417224D01*
X177313841Y-102594772D01*
X177273679Y-102783719D01*
X177270982Y-102976868D01*
X177305853Y-103166863D01*
X177376963Y-103346467D01*
X177481604Y-103508838D01*
X177615790Y-103647792D01*
X177774410Y-103758036D01*
X177951422Y-103835370D01*
X178140085Y-103876850D01*
X178333211Y-103880896D01*
X178523445Y-103847353D01*
X178702932Y-103777734D01*
X180978125Y-106052927D01*
X180966829Y-106106069D01*
X180963310Y-106358046D01*
X181008802Y-106605908D01*
X181061893Y-106740000D01*
X177564802Y-106740000D01*
X177272816Y-106448014D01*
X177281036Y-106411833D01*
X177285056Y-106123999D01*
X177236108Y-105876797D01*
X177140078Y-105643810D01*
X177000622Y-105433912D01*
X176999775Y-105433059D01*
X177004494Y-105430537D01*
X177101185Y-105351185D01*
X177180537Y-105254494D01*
X177239502Y-105144180D01*
X177275812Y-105024482D01*
X177288072Y-104900000D01*
X177288072Y-103600000D01*
X177275812Y-103475518D01*
X177239502Y-103355820D01*
X177180537Y-103245506D01*
X177101185Y-103148815D01*
X177004494Y-103069463D01*
X176894180Y-103010498D01*
X176774482Y-102974188D01*
X176650000Y-102961928D01*
X175353873Y-102961928D01*
X175353873Y-101114621D01*
X175406937Y-101126288D01*
X175649079Y-101131361D01*
X175887596Y-101089304D01*
X176113401Y-101001720D01*
X176317894Y-100871944D01*
X176493286Y-100704921D01*
X176508786Y-100682949D01*
X176659572Y-100839093D01*
X176858451Y-100977317D01*
X177080390Y-101074280D01*
X177316937Y-101126288D01*
X177559079Y-101131361D01*
X177797596Y-101089304D01*
X178023401Y-101001720D01*
X178227894Y-100871944D01*
X178403286Y-100704921D01*
X178542895Y-100507012D01*
X178641405Y-100285755D01*
X178695064Y-100049578D01*
X178698926Y-99772944D01*
X178651884Y-99535360D01*
X178559590Y-99311439D01*
X178499611Y-99221163D01*
X178509079Y-99221361D01*
X178747596Y-99179304D01*
X178973401Y-99091720D01*
X179177894Y-98961944D01*
X179353286Y-98794921D01*
X179492895Y-98597012D01*
X179591405Y-98375755D01*
X179645064Y-98139578D01*
X179646977Y-98002517D01*
X181030453Y-96619041D01*
X181375875Y-96619041D01*
X181148906Y-96950521D01*
X180983964Y-97335359D01*
X180896913Y-97744904D01*
X180891067Y-98163559D01*
X180966649Y-98575375D01*
X181120781Y-98964668D01*
X181347592Y-99316609D01*
X181638442Y-99617793D01*
X181982253Y-99856748D01*
X182365930Y-100024372D01*
X182774857Y-100114281D01*
X183193461Y-100123049D01*
X183605795Y-100050344D01*
X183996154Y-99898933D01*
X184349670Y-99674585D01*
X184652877Y-99385845D01*
X184894227Y-99043710D01*
X185064525Y-98661213D01*
X185157286Y-98252923D01*
X185163964Y-97774694D01*
X185137016Y-97638595D01*
X187215282Y-99716861D01*
X187213310Y-99858046D01*
X187258802Y-100105908D01*
X187351570Y-100340213D01*
X187488081Y-100552037D01*
X187663136Y-100733312D01*
X187870067Y-100877133D01*
X188100992Y-100978021D01*
X188347115Y-101032135D01*
X188599061Y-101037412D01*
X188847234Y-100993653D01*
X189082181Y-100902523D01*
X189294953Y-100767494D01*
X189434085Y-100635000D01*
X189568197Y-100635000D01*
X189663136Y-100733312D01*
X189870067Y-100877133D01*
X190100992Y-100978021D01*
X190347115Y-101032135D01*
X190599061Y-101037412D01*
X190847234Y-100993653D01*
X191082181Y-100902523D01*
X191294953Y-100767494D01*
X191477446Y-100593708D01*
X191622708Y-100387787D01*
X191725206Y-100157572D01*
X191781036Y-99911833D01*
X191785056Y-99623999D01*
X191736108Y-99376797D01*
X191640078Y-99143810D01*
X191500622Y-98933912D01*
X191323053Y-98755099D01*
X191314223Y-98749143D01*
X191477446Y-98593708D01*
X191622708Y-98387787D01*
X191725206Y-98157572D01*
X191781036Y-97911833D01*
X191785056Y-97623999D01*
X191736108Y-97376797D01*
X191640078Y-97143810D01*
X191500622Y-96933912D01*
X191323053Y-96755099D01*
X191197740Y-96670574D01*
X191205922Y-96635527D01*
X190500000Y-95929605D01*
X190485858Y-95943748D01*
X190306253Y-95764143D01*
X190320395Y-95750000D01*
X190306253Y-95735858D01*
X190485858Y-95556253D01*
X190500000Y-95570395D01*
X190514143Y-95556253D01*
X190693748Y-95735858D01*
X190679605Y-95750000D01*
X191385527Y-96455922D01*
X191614201Y-96402534D01*
X191720095Y-96172626D01*
X191779102Y-95926476D01*
X191788952Y-95673545D01*
X191753629Y-95451012D01*
X192443853Y-96141236D01*
X192443853Y-96141236D01*
G37*
X192443853Y-96141236D02*
X192443853Y-104231345D01*
X191746404Y-104928794D01*
X191736108Y-104876797D01*
X191640078Y-104643810D01*
X191500622Y-104433912D01*
X191323053Y-104255099D01*
X191114135Y-104114182D01*
X190881824Y-104016527D01*
X190634969Y-103965855D01*
X190382974Y-103964096D01*
X190135436Y-104011317D01*
X189901784Y-104105718D01*
X189690918Y-104243705D01*
X189683472Y-104250997D01*
X189680537Y-104245506D01*
X189601185Y-104148815D01*
X189504494Y-104069463D01*
X189394180Y-104010498D01*
X189274482Y-103974188D01*
X189150000Y-103961928D01*
X187850000Y-103961928D01*
X187725518Y-103974188D01*
X187605820Y-104010498D01*
X187495506Y-104069463D01*
X187398815Y-104148815D01*
X187319463Y-104245506D01*
X187260498Y-104355820D01*
X187224188Y-104475518D01*
X187212010Y-104599166D01*
X187186075Y-104612610D01*
X187182952Y-104615103D01*
X187179422Y-104616980D01*
X187124989Y-104661375D01*
X187070155Y-104705148D01*
X187064596Y-104710630D01*
X187064478Y-104710726D01*
X187064388Y-104710835D01*
X187062599Y-104712599D01*
X186285198Y-105490000D01*
X185287887Y-105490000D01*
X185250622Y-105433912D01*
X185249775Y-105433059D01*
X185254494Y-105430537D01*
X185351185Y-105351185D01*
X185430537Y-105254494D01*
X185489502Y-105144180D01*
X185525812Y-105024482D01*
X185538072Y-104900000D01*
X185538072Y-103600000D01*
X185525812Y-103475518D01*
X185489502Y-103355820D01*
X185430537Y-103245506D01*
X185351185Y-103148815D01*
X185254494Y-103069463D01*
X185144180Y-103010498D01*
X185024482Y-102974188D01*
X184900000Y-102961928D01*
X183600000Y-102961928D01*
X183475518Y-102974188D01*
X183355820Y-103010498D01*
X183245506Y-103069463D01*
X183148815Y-103148815D01*
X183069463Y-103245506D01*
X183066646Y-103250777D01*
X182864135Y-103114182D01*
X182631824Y-103016527D01*
X182384969Y-102965855D01*
X182132974Y-102964096D01*
X181885436Y-103011317D01*
X181651784Y-103105718D01*
X181440918Y-103243705D01*
X181260870Y-103420021D01*
X181118497Y-103627951D01*
X181019223Y-103859575D01*
X181004350Y-103929548D01*
X179431448Y-102356646D01*
X179377192Y-102312079D01*
X179323422Y-102266961D01*
X179319921Y-102265036D01*
X179316832Y-102262499D01*
X179254980Y-102229334D01*
X179193443Y-102195504D01*
X179189631Y-102194295D01*
X179186112Y-102192408D01*
X179119016Y-102171895D01*
X179052060Y-102150655D01*
X179048088Y-102150209D01*
X179044266Y-102149041D01*
X178974398Y-102141944D01*
X178904658Y-102134121D01*
X178896853Y-102134067D01*
X178896700Y-102134051D01*
X178896557Y-102134065D01*
X178894047Y-102134047D01*
X178890788Y-102134047D01*
X178888178Y-102131419D01*
X178728034Y-102023401D01*
X178549959Y-101948545D01*
X178360736Y-101909703D01*
X178167572Y-101908354D01*
X177977825Y-101944551D01*
X177798722Y-102016913D01*
X177637086Y-102122685D01*
X177499072Y-102257838D01*
X177389938Y-102417224D01*
X177313841Y-102594772D01*
X177273679Y-102783719D01*
X177270982Y-102976868D01*
X177305853Y-103166863D01*
X177376963Y-103346467D01*
X177481604Y-103508838D01*
X177615790Y-103647792D01*
X177774410Y-103758036D01*
X177951422Y-103835370D01*
X178140085Y-103876850D01*
X178333211Y-103880896D01*
X178523445Y-103847353D01*
X178702932Y-103777734D01*
X180978125Y-106052927D01*
X180966829Y-106106069D01*
X180963310Y-106358046D01*
X181008802Y-106605908D01*
X181061893Y-106740000D01*
X177564802Y-106740000D01*
X177272816Y-106448014D01*
X177281036Y-106411833D01*
X177285056Y-106123999D01*
X177236108Y-105876797D01*
X177140078Y-105643810D01*
X177000622Y-105433912D01*
X176999775Y-105433059D01*
X177004494Y-105430537D01*
X177101185Y-105351185D01*
X177180537Y-105254494D01*
X177239502Y-105144180D01*
X177275812Y-105024482D01*
X177288072Y-104900000D01*
X177288072Y-103600000D01*
X177275812Y-103475518D01*
X177239502Y-103355820D01*
X177180537Y-103245506D01*
X177101185Y-103148815D01*
X177004494Y-103069463D01*
X176894180Y-103010498D01*
X176774482Y-102974188D01*
X176650000Y-102961928D01*
X175353873Y-102961928D01*
X175353873Y-101114621D01*
X175406937Y-101126288D01*
X175649079Y-101131361D01*
X175887596Y-101089304D01*
X176113401Y-101001720D01*
X176317894Y-100871944D01*
X176493286Y-100704921D01*
X176508786Y-100682949D01*
X176659572Y-100839093D01*
X176858451Y-100977317D01*
X177080390Y-101074280D01*
X177316937Y-101126288D01*
X177559079Y-101131361D01*
X177797596Y-101089304D01*
X178023401Y-101001720D01*
X178227894Y-100871944D01*
X178403286Y-100704921D01*
X178542895Y-100507012D01*
X178641405Y-100285755D01*
X178695064Y-100049578D01*
X178698926Y-99772944D01*
X178651884Y-99535360D01*
X178559590Y-99311439D01*
X178499611Y-99221163D01*
X178509079Y-99221361D01*
X178747596Y-99179304D01*
X178973401Y-99091720D01*
X179177894Y-98961944D01*
X179353286Y-98794921D01*
X179492895Y-98597012D01*
X179591405Y-98375755D01*
X179645064Y-98139578D01*
X179646977Y-98002517D01*
X181030453Y-96619041D01*
X181375875Y-96619041D01*
X181148906Y-96950521D01*
X180983964Y-97335359D01*
X180896913Y-97744904D01*
X180891067Y-98163559D01*
X180966649Y-98575375D01*
X181120781Y-98964668D01*
X181347592Y-99316609D01*
X181638442Y-99617793D01*
X181982253Y-99856748D01*
X182365930Y-100024372D01*
X182774857Y-100114281D01*
X183193461Y-100123049D01*
X183605795Y-100050344D01*
X183996154Y-99898933D01*
X184349670Y-99674585D01*
X184652877Y-99385845D01*
X184894227Y-99043710D01*
X185064525Y-98661213D01*
X185157286Y-98252923D01*
X185163964Y-97774694D01*
X185137016Y-97638595D01*
X187215282Y-99716861D01*
X187213310Y-99858046D01*
X187258802Y-100105908D01*
X187351570Y-100340213D01*
X187488081Y-100552037D01*
X187663136Y-100733312D01*
X187870067Y-100877133D01*
X188100992Y-100978021D01*
X188347115Y-101032135D01*
X188599061Y-101037412D01*
X188847234Y-100993653D01*
X189082181Y-100902523D01*
X189294953Y-100767494D01*
X189434085Y-100635000D01*
X189568197Y-100635000D01*
X189663136Y-100733312D01*
X189870067Y-100877133D01*
X190100992Y-100978021D01*
X190347115Y-101032135D01*
X190599061Y-101037412D01*
X190847234Y-100993653D01*
X191082181Y-100902523D01*
X191294953Y-100767494D01*
X191477446Y-100593708D01*
X191622708Y-100387787D01*
X191725206Y-100157572D01*
X191781036Y-99911833D01*
X191785056Y-99623999D01*
X191736108Y-99376797D01*
X191640078Y-99143810D01*
X191500622Y-98933912D01*
X191323053Y-98755099D01*
X191314223Y-98749143D01*
X191477446Y-98593708D01*
X191622708Y-98387787D01*
X191725206Y-98157572D01*
X191781036Y-97911833D01*
X191785056Y-97623999D01*
X191736108Y-97376797D01*
X191640078Y-97143810D01*
X191500622Y-96933912D01*
X191323053Y-96755099D01*
X191197740Y-96670574D01*
X191205922Y-96635527D01*
X190500000Y-95929605D01*
X190485858Y-95943748D01*
X190306253Y-95764143D01*
X190320395Y-95750000D01*
X190306253Y-95735858D01*
X190485858Y-95556253D01*
X190500000Y-95570395D01*
X190514143Y-95556253D01*
X190693748Y-95735858D01*
X190679605Y-95750000D01*
X191385527Y-96455922D01*
X191614201Y-96402534D01*
X191720095Y-96172626D01*
X191779102Y-95926476D01*
X191788952Y-95673545D01*
X191753629Y-95451012D01*
X192443853Y-96141236D01*
G36*
X166197621Y-99879900D02*
X166183478Y-99894042D01*
X166197621Y-99908185D01*
X166018016Y-100087790D01*
X166003873Y-100073647D01*
X165989731Y-100087790D01*
X165810126Y-99908185D01*
X165824268Y-99894042D01*
X165810126Y-99879900D01*
X165989731Y-99700295D01*
X166003873Y-99714437D01*
X166018016Y-99700295D01*
X166197621Y-99879900D01*
X166197621Y-99879900D01*
G37*
X166197621Y-99879900D02*
X166183478Y-99894042D01*
X166197621Y-99908185D01*
X166018016Y-100087790D01*
X166003873Y-100073647D01*
X165989731Y-100087790D01*
X165810126Y-99908185D01*
X165824268Y-99894042D01*
X165810126Y-99879900D01*
X165989731Y-99700295D01*
X166003873Y-99714437D01*
X166018016Y-99700295D01*
X166197621Y-99879900D01*
G36*
X164287621Y-99879900D02*
X164273478Y-99894042D01*
X164287621Y-99908185D01*
X164108016Y-100087790D01*
X164093873Y-100073647D01*
X164079731Y-100087790D01*
X163900126Y-99908185D01*
X163914268Y-99894042D01*
X163900126Y-99879900D01*
X164079731Y-99700295D01*
X164093873Y-99714437D01*
X164108016Y-99700295D01*
X164287621Y-99879900D01*
X164287621Y-99879900D01*
G37*
X164287621Y-99879900D02*
X164273478Y-99894042D01*
X164287621Y-99908185D01*
X164108016Y-100087790D01*
X164093873Y-100073647D01*
X164079731Y-100087790D01*
X163900126Y-99908185D01*
X163914268Y-99894042D01*
X163900126Y-99879900D01*
X164079731Y-99700295D01*
X164093873Y-99714437D01*
X164108016Y-99700295D01*
X164287621Y-99879900D01*
G36*
X165237621Y-97969900D02*
X165223478Y-97984042D01*
X165237621Y-97998185D01*
X165058016Y-98177790D01*
X165043873Y-98163647D01*
X165029731Y-98177790D01*
X164850126Y-97998185D01*
X164864268Y-97984042D01*
X164850126Y-97969900D01*
X165029731Y-97790295D01*
X165043873Y-97804437D01*
X165058016Y-97790295D01*
X165237621Y-97969900D01*
X165237621Y-97969900D01*
G37*
X165237621Y-97969900D02*
X165223478Y-97984042D01*
X165237621Y-97998185D01*
X165058016Y-98177790D01*
X165043873Y-98163647D01*
X165029731Y-98177790D01*
X164850126Y-97998185D01*
X164864268Y-97984042D01*
X164850126Y-97969900D01*
X165029731Y-97790295D01*
X165043873Y-97804437D01*
X165058016Y-97790295D01*
X165237621Y-97969900D01*
G36*
X188627000Y-95623000D02*
X188647000Y-95623000D01*
X188647000Y-95877000D01*
X188627000Y-95877000D01*
X188627000Y-95897000D01*
X188373000Y-95897000D01*
X188373000Y-95877000D01*
X188353000Y-95877000D01*
X188353000Y-95623000D01*
X188373000Y-95623000D01*
X188373000Y-95603000D01*
X188627000Y-95603000D01*
X188627000Y-95623000D01*
X188627000Y-95623000D01*
G37*
X188627000Y-95623000D02*
X188647000Y-95623000D01*
X188647000Y-95877000D01*
X188627000Y-95877000D01*
X188627000Y-95897000D01*
X188373000Y-95897000D01*
X188373000Y-95877000D01*
X188353000Y-95877000D01*
X188353000Y-95623000D01*
X188373000Y-95623000D01*
X188373000Y-95603000D01*
X188627000Y-95603000D01*
X188627000Y-95623000D01*
M02*
